<svg width="20" height="20" viewBox="0 0 20 20" fill="none" xmlns="http://www.w3.org/2000/svg">
<g clip-path="url(#clip0_2082_103)">
<path d="M6.66669 8.33335C6.66669 7.89133 6.84228 7.4674 7.15484 7.15484C7.4674 6.84228 7.89133 6.66669 8.33335 6.66669H15C15.442 6.66669 15.866 6.84228 16.1785 7.15484C16.4911 7.4674 16.6667 7.89133 16.6667 8.33335V15C16.6667 15.442 16.4911 15.866 16.1785 16.1785C15.866 16.4911 15.442 16.6667 15 16.6667H8.33335C7.89133 16.6667 7.4674 16.4911 7.15484 16.1785C6.84228 15.866 6.66669 15.442 6.66669 15V8.33335Z" stroke="#14171A" stroke-width="1.25" stroke-linecap="square" stroke-linejoin="round"/>
<path d="M13.3333 6.66665V4.99998C13.3333 4.55795 13.1577 4.13403 12.8452 3.82147C12.5326 3.50891 12.1087 3.33331 11.6666 3.33331H4.99998C4.55795 3.33331 4.13403 3.50891 3.82147 3.82147C3.50891 4.13403 3.33331 4.55795 3.33331 4.99998V11.6666C3.33331 12.1087 3.50891 12.5326 3.82147 12.8452C4.13403 13.1577 4.55795 13.3333 4.99998 13.3333H6.66665" stroke="#14171A" stroke-width="1.25" stroke-linecap="square" stroke-linejoin="round"/>
</g>
<defs>
<clipPath id="clip0_2082_103">
<rect width="20" height="20" fill="white"/>
</clipPath>
</defs>
</svg>
