<svg width="24" height="24" viewBox="0 0 24 24" fill="none" xmlns="http://www.w3.org/2000/svg">
<g clip-path="url(#clip0_586_9404)">
<path d="M12.4656 17.9953C12.1742 17.8417 11.8257 17.8416 11.5341 17.9949L7.62155 20.052C6.88791 20.4377 6.03045 19.8147 6.17059 18.9978L6.91802 14.6406C6.97371 14.3159 6.86596 13.9847 6.62993 13.7549L3.46088 10.6702C2.86661 10.0917 3.19421 9.08289 4.01497 8.96394L8.38645 8.33039C8.71231 8.28317 8.99404 8.07856 9.13976 7.78329L11.0963 3.81897C11.4631 3.07571 12.5229 3.07571 12.8897 3.81897L14.8462 7.78329C14.9919 8.07856 15.2737 8.28317 15.5995 8.33039L19.971 8.96394C20.7918 9.08289 21.1194 10.0917 20.5251 10.6702L17.356 13.7549C17.12 13.9847 17.0123 14.3159 17.068 14.6406L17.815 18.9954C17.9552 19.8128 17.0969 20.4358 16.3632 20.0492L12.4656 17.9953Z" stroke="white" stroke-opacity="0.4" stroke-width="1.25" stroke-linecap="round" stroke-linejoin="round"/>
</g>
<defs>
<clipPath id="clip0_586_9404">
<rect width="24" height="24" fill="white"/>
</clipPath>
</defs>
</svg>
