<svg xmlns="http://www.w3.org/2000/svg" width="200" height="200" viewBox="0 0 186 186" fill="none">
    <g clip-path="url(#clip0_210_1120)">
        <path
            d="M92.3218 179.451C93.7389 180.868 93.7389 183.166 92.3218 184.583C90.9046 186 88.6069 186 87.1897 184.583C85.7726 183.166 85.7726 180.868 87.1897 179.451C88.6069 178.034 90.9046 178.034 92.3218 179.451ZM86.7565 174.046C85.3836 172.673 83.1577 172.673 81.7848 174.046C80.4119 175.419 80.4119 177.645 81.7848 179.018C83.1577 180.391 85.3836 180.391 86.7565 179.018C88.1294 177.645 88.1294 175.419 86.7565 174.046ZM81.1912 168.641C79.8626 167.313 77.7085 167.313 76.3799 168.641C75.0513 169.97 75.0513 172.124 76.3799 173.453C77.7085 174.781 79.8626 174.781 81.1912 173.453C82.5198 172.124 82.5198 169.97 81.1912 168.641ZM75.6259 163.236C74.3415 161.952 72.2593 161.952 70.975 163.236C69.6906 164.521 69.6906 166.603 70.975 167.887C72.2593 169.172 74.3415 169.172 75.6259 167.887C76.9102 166.603 76.9102 164.521 75.6259 163.236ZM70.0606 157.831C68.8205 156.591 66.81 156.591 65.57 157.831C64.33 159.071 64.33 161.082 65.57 162.322C66.81 163.562 68.8205 163.562 70.0606 162.322C71.3006 161.082 71.3006 159.071 70.0606 157.831ZM64.4953 152.426C63.2995 151.231 61.3608 151.231 60.1651 152.426C58.9694 153.622 58.9694 155.561 60.1651 156.757C61.3608 157.952 63.2995 157.952 64.4953 156.757C65.691 155.561 65.691 153.622 64.4953 152.426ZM58.9299 147.022C57.7785 145.87 55.9116 145.87 54.7602 147.022C53.6087 148.173 53.6087 150.04 54.7602 151.191C55.9116 152.343 57.7785 152.343 58.9299 151.191C60.0814 150.04 60.0814 148.173 58.9299 147.022ZM53.3646 141.617C52.2575 140.509 50.4624 140.509 49.3552 141.617C48.2481 142.724 48.2481 144.519 49.3552 145.626C50.4624 146.733 52.2575 146.733 53.3646 145.626C54.4718 144.519 54.4718 142.724 53.3646 141.617ZM47.7993 136.212C46.7365 135.149 45.0132 135.149 43.9503 136.212C42.8874 137.275 42.8874 138.998 43.9503 140.061C45.0132 141.124 46.7365 141.124 47.7993 140.061C48.8622 138.998 48.8622 137.275 47.7993 136.212ZM38.5454 130.807C37.5268 131.825 37.5268 133.477 38.5454 134.495C39.564 135.514 41.2154 135.514 42.234 134.495C43.2526 133.477 43.2526 131.825 42.234 130.807C41.2154 129.788 39.564 129.788 38.5454 130.807ZM33.1405 125.402C32.1661 126.376 32.1661 127.956 33.1405 128.93C34.1148 129.904 35.6944 129.904 36.6687 128.93C37.643 127.956 37.643 126.376 36.6687 125.402C35.6944 124.428 34.1148 124.428 33.1405 125.402ZM27.7355 119.997C26.8055 120.927 26.8055 122.435 27.7355 123.365C28.6655 124.295 30.1734 124.295 31.1034 123.365C32.0334 122.435 32.0334 120.927 31.1034 119.997C30.1734 119.067 28.6655 119.067 27.7355 119.997ZM22.3306 114.592C21.4449 115.478 21.4449 116.914 22.3306 117.8C23.2163 118.685 24.6524 118.685 25.5381 117.8C26.4239 116.914 26.4239 115.478 25.5381 114.592C24.6524 113.706 23.2163 113.706 22.3306 114.592ZM16.9257 109.187C16.0842 110.028 16.0842 111.393 16.9257 112.234C17.7671 113.076 19.1314 113.076 19.9728 112.234C20.8143 111.393 20.8143 110.028 19.9728 109.187C19.1314 108.346 17.7671 108.346 16.9257 109.187ZM11.5207 103.782C10.7236 104.579 10.7236 105.872 11.5207 106.669C12.3179 107.466 13.6104 107.466 14.4075 106.669C15.2047 105.872 15.2047 104.579 14.4075 103.782C13.6104 102.985 12.3179 102.985 11.5207 103.782ZM6.11581 98.3772C5.36293 99.1301 5.36293 100.351 6.11581 101.104C6.86868 101.856 8.08933 101.856 8.8422 101.104C9.59508 100.351 9.59508 99.1301 8.8422 98.3772C8.08933 97.6243 6.86868 97.6243 6.11581 98.3772ZM0.710881 92.9723C0.00229747 93.6809 0.00229747 94.8297 0.710881 95.5383C1.41946 96.2469 2.56831 96.2469 3.2769 95.5383C3.98548 94.8297 3.98548 93.6809 3.2769 92.9723C2.56831 92.2637 1.41946 92.2637 0.710881 92.9723ZM92.956 173.685C91.5388 175.102 91.5388 177.4 92.956 178.817C94.3731 180.234 96.6708 180.234 98.088 178.817C99.5052 177.4 99.5052 175.102 98.088 173.685C96.6708 172.268 94.3731 172.268 92.956 173.685ZM92.5227 173.252C93.8956 171.879 93.8956 169.653 92.5227 168.28C91.1498 166.907 88.9239 166.907 87.551 168.28C86.1781 169.653 86.1781 171.879 87.551 173.252C88.9239 174.625 91.1498 174.625 92.5227 173.252ZM86.9574 167.686C88.286 166.358 88.286 164.204 86.9574 162.875C85.6288 161.546 83.4747 161.546 82.1461 162.875C80.8175 164.204 80.8175 166.358 82.1461 167.686C83.4747 169.015 85.6288 169.015 86.9574 167.686ZM81.3921 162.121C82.6764 160.837 82.6764 158.754 81.3921 157.47C80.1078 156.186 78.0255 156.186 76.7412 157.47C75.4569 158.754 75.4569 160.837 76.7412 162.121C78.0255 163.405 80.1078 163.405 81.3921 162.121ZM75.8268 156.556C77.0668 155.316 77.0668 153.305 75.8268 152.065C74.5867 150.825 72.5763 150.825 71.3362 152.065C70.0962 153.305 70.0962 155.316 71.3362 156.556C72.5763 157.796 74.5867 157.796 75.8268 156.556ZM70.2615 150.99C71.4572 149.795 71.4572 147.856 70.2615 146.66C69.0657 145.465 67.127 145.465 65.9313 146.66C64.7356 147.856 64.7356 149.795 65.9313 150.99C67.127 152.186 69.0657 152.186 70.2615 150.99ZM64.6962 145.425C65.8476 144.274 65.8476 142.407 64.6962 141.255C63.5447 140.104 61.6778 140.104 60.5264 141.255C59.3749 142.407 59.3749 144.274 60.5264 145.425C61.6778 146.577 63.5447 146.577 64.6962 145.425ZM59.1309 139.86C60.238 138.753 60.238 136.958 59.1309 135.85C58.0237 134.743 56.2286 134.743 55.1214 135.85C54.0143 136.958 54.0143 138.753 55.1214 139.86C56.2286 140.967 58.0237 140.967 59.1309 139.86ZM53.5656 134.295C54.6284 133.232 54.6284 131.508 53.5656 130.445C52.5027 129.383 50.7794 129.383 49.7165 130.445C48.6536 131.508 48.6536 133.232 49.7165 134.295C50.7794 135.357 52.5027 135.357 53.5656 134.295ZM44.3116 125.041C43.293 126.059 43.293 127.711 44.3116 128.729C45.3302 129.748 46.9817 129.748 48.0002 128.729C49.0188 127.711 49.0188 126.059 48.0002 125.041C46.9817 124.022 45.3302 124.022 44.3116 125.041ZM38.9067 119.636C37.9324 120.61 37.9324 122.19 38.9067 123.164C39.881 124.138 41.4606 124.138 42.4349 123.164C43.4093 122.19 43.4093 120.61 42.4349 119.636C41.4606 118.661 39.881 118.661 38.9067 119.636ZM33.5017 114.231C32.5717 115.161 32.5717 116.669 33.5017 117.599C34.4318 118.529 35.9396 118.529 36.8696 117.599C37.7997 116.669 37.7997 115.161 36.8696 114.231C35.9396 113.301 34.4318 113.301 33.5017 114.231ZM28.0968 108.826C27.2111 109.712 27.2111 111.148 28.0968 112.033C28.9825 112.919 30.4186 112.919 31.3043 112.033C32.1901 111.148 32.1901 109.712 31.3043 108.826C30.4186 107.94 28.9825 107.94 28.0968 108.826ZM22.6919 103.421C21.8504 104.262 21.8504 105.627 22.6919 106.468C23.5333 107.309 24.8976 107.309 25.739 106.468C26.5805 105.627 26.5805 104.262 25.739 103.421C24.8976 102.579 23.5333 102.579 22.6919 103.421ZM17.287 98.0159C16.4898 98.8131 16.4898 100.106 17.287 100.903C18.0841 101.7 19.3766 101.7 20.1737 100.903C20.9709 100.106 20.9709 98.8131 20.1737 98.0159C19.3766 97.2188 18.0841 97.2188 17.287 98.0159ZM11.882 92.611C11.1291 93.3639 11.1291 94.5845 11.882 95.3374C12.6349 96.0903 13.8555 96.0903 14.6084 95.3374C15.3613 94.5845 15.3613 93.3639 14.6084 92.611C13.8555 91.8581 12.6349 91.8581 11.882 92.611ZM6.4771 87.206C5.7685 87.9146 5.7685 89.0635 6.4771 89.7721C7.18568 90.4807 8.33453 90.4807 9.04311 89.7721C9.7517 89.0635 9.7517 87.9146 9.04311 87.206C8.33453 86.4975 7.18568 86.4975 6.4771 87.206ZM98.7222 167.919C97.305 169.336 97.305 171.634 98.7222 173.051C100.139 174.468 102.437 174.468 103.854 173.051C105.271 171.634 105.271 169.336 103.854 167.919C102.437 166.502 100.139 166.502 98.7222 167.919ZM98.2889 167.485C99.6618 166.113 99.6618 163.887 98.2889 162.514C96.916 161.141 94.6901 161.141 93.3172 162.514C91.9444 163.887 91.9444 166.113 93.3172 167.485C94.6901 168.858 96.916 168.858 98.2889 167.485ZM92.7236 161.92C94.0522 160.592 94.0522 158.437 92.7236 157.109C91.395 155.78 89.2409 155.78 87.9123 157.109C86.5837 158.437 86.5837 160.592 87.9123 161.92C89.2409 163.249 91.395 163.249 92.7236 161.92ZM87.1583 156.355C88.4426 155.071 88.4426 152.988 87.1583 151.704C85.874 150.42 83.7917 150.42 82.5074 151.704C81.2231 152.988 81.2231 155.071 82.5074 156.355C83.7917 157.639 85.874 157.639 87.1583 156.355ZM81.593 150.79C82.833 149.549 82.833 147.539 81.593 146.299C80.353 145.059 78.3425 145.059 77.1025 146.299C75.8624 147.539 75.8624 149.549 77.1025 150.79C78.3425 152.03 80.353 152.03 81.593 150.79ZM76.0277 145.224C77.2234 144.028 77.2234 142.09 76.0277 140.894C74.8319 139.698 72.8933 139.698 71.6975 140.894C70.5018 142.09 70.5018 144.028 71.6975 145.224C72.8933 146.42 74.8319 146.42 76.0277 145.224ZM70.4624 139.659C71.6138 138.507 71.6138 136.641 70.4624 135.489C69.3109 134.338 67.444 134.338 66.2926 135.489C65.1411 136.641 65.1411 138.507 66.2926 139.659C67.444 140.81 69.3109 140.81 70.4624 139.659ZM60.8877 130.084C59.7805 131.191 59.7805 132.986 60.8877 134.094C61.9948 135.201 63.7899 135.201 64.8971 134.094C66.0042 132.986 66.0042 131.191 64.8971 130.084C63.7899 128.977 61.9948 128.977 60.8877 130.084ZM55.4827 128.528C56.5456 129.591 58.2689 129.591 59.3318 128.528C60.3946 127.465 60.3946 125.742 59.3318 124.679C58.2689 123.616 56.5456 123.616 55.4827 124.679C54.4199 125.742 54.4199 127.465 55.4827 128.528ZM50.0778 122.963C51.0964 123.982 52.7479 123.982 53.7665 122.963C54.7851 121.944 54.7851 120.293 53.7665 119.274C52.7479 118.256 51.0964 118.256 50.0778 119.274C49.0592 120.293 49.0592 121.944 50.0778 122.963ZM48.2012 113.869C47.2268 112.895 45.6472 112.895 44.6729 113.869C43.6986 114.844 43.6986 116.423 44.6729 117.398C45.6472 118.372 47.2268 118.372 48.2012 117.398C49.1755 116.423 49.1755 114.844 48.2012 113.869ZM42.6359 111.832C43.5659 110.902 43.5659 109.395 42.6359 108.464C41.7058 107.534 40.198 107.534 39.2679 108.464C38.3379 109.395 38.3379 110.902 39.2679 111.832C40.198 112.762 41.7058 112.762 42.6359 111.832ZM33.863 103.06C32.9773 103.945 32.9773 105.381 33.863 106.267C34.7488 107.153 36.1848 107.153 37.0705 106.267C37.9563 105.381 37.9563 103.945 37.0705 103.06C36.1848 102.174 34.7488 102.174 33.863 103.06ZM28.4581 97.6546C27.6166 98.4961 27.6166 99.8603 28.4581 100.702C29.2995 101.543 30.6638 101.543 31.5052 100.702C32.3467 99.8603 32.3467 98.4961 31.5052 97.6546C30.6638 96.8132 29.2995 96.8132 28.4581 97.6546ZM23.0532 92.2497C22.256 93.0469 22.256 94.3393 23.0532 95.1365C23.8503 95.9336 25.1428 95.9336 25.9399 95.1365C26.7371 94.3393 26.7371 93.0469 25.9399 92.2497C25.1428 91.4525 23.8503 91.4525 23.0532 92.2497ZM17.6482 86.8448C16.8954 87.5976 16.8954 88.8183 17.6482 89.5712C18.4011 90.324 19.6218 90.324 20.3746 89.5712C21.1275 88.8183 21.1275 87.5976 20.3746 86.8448C19.6218 86.0919 18.4011 86.0919 17.6482 86.8448ZM12.2433 81.4398C11.5347 82.1484 11.5347 83.2973 12.2433 84.0058C12.9519 84.7144 14.1007 84.7144 14.8093 84.0058C15.5179 83.2973 15.5179 82.1484 14.8093 81.4398C14.1007 80.7312 12.9519 80.7312 12.2433 81.4398ZM104.488 162.152C103.071 163.57 103.071 165.867 104.488 167.285C105.906 168.702 108.203 168.702 109.62 167.285C111.038 165.867 111.038 163.57 109.62 162.152C108.203 160.735 105.906 160.735 104.488 162.152ZM104.055 161.719C105.428 160.346 105.428 158.12 104.055 156.748C102.682 155.375 100.456 155.375 99.0835 156.748C97.7106 158.12 97.7106 160.346 99.0835 161.719C100.456 163.092 102.682 163.092 104.055 161.719ZM98.4898 156.154C99.8184 154.825 99.8184 152.671 98.4898 151.343C97.1612 150.014 95.0071 150.014 93.6785 151.343C92.3499 152.671 92.3499 154.825 93.6785 156.154C95.0071 157.483 97.1612 157.483 98.4898 156.154ZM92.9245 150.589C94.2088 149.304 94.2088 147.222 92.9245 145.938C91.6402 144.653 89.5579 144.653 88.2736 145.938C86.9893 147.222 86.9893 149.304 88.2736 150.589C89.5579 151.873 91.6402 151.873 92.9245 150.589ZM87.3592 145.023C88.5992 143.783 88.5992 141.773 87.3592 140.533C86.1192 139.293 84.1087 139.293 82.8687 140.533C81.6286 141.773 81.6286 143.783 82.8687 145.023C84.1087 146.263 86.1192 146.263 87.3592 145.023ZM77.4637 135.128C76.268 136.324 76.268 138.262 77.4637 139.458C78.6595 140.654 80.5982 140.654 81.7939 139.458C82.9896 138.262 82.9896 136.324 81.7939 135.128C80.5982 133.932 78.6595 133.932 77.4637 135.128ZM72.0588 133.893C73.2103 135.044 75.0771 135.044 76.2286 133.893C77.38 132.741 77.38 130.874 76.2286 129.723C75.0771 128.571 73.2103 128.571 72.0588 129.723C70.9074 130.874 70.9074 132.741 72.0588 133.893ZM66.6539 124.318C65.5467 125.425 65.5467 127.22 66.6539 128.327C67.761 129.435 69.5561 129.435 70.6633 128.327C71.7704 127.22 71.7704 125.425 70.6633 124.318C69.5561 123.211 67.761 123.211 66.6539 124.318ZM61.249 122.762C62.3118 123.825 64.0351 123.825 65.098 122.762C66.1609 121.699 66.1609 119.976 65.098 118.913C64.0351 117.85 62.3118 117.85 61.249 118.913C60.1861 119.976 60.1861 121.699 61.249 122.762ZM55.844 117.197C56.8626 118.215 58.5141 118.215 59.5327 117.197C60.5513 116.178 60.5513 114.527 59.5327 113.508C58.5141 112.49 56.8626 112.49 55.844 113.508C54.8254 114.527 54.8254 116.178 55.844 117.197ZM50.4391 108.103C49.4648 109.078 49.4648 110.657 50.4391 111.631C51.4134 112.606 52.9931 112.606 53.9674 111.631C54.9417 110.657 54.9417 109.078 53.9674 108.103C52.9931 107.129 51.4134 107.129 50.4391 108.103ZM48.4021 106.066C49.3321 105.136 49.3321 103.628 48.4021 102.698C47.472 101.768 45.9642 101.768 45.0342 102.698C44.1041 103.628 44.1041 105.136 45.0342 106.066C45.9642 106.996 47.472 106.996 48.4021 106.066ZM42.8368 100.501C43.7225 99.6151 43.7225 98.1791 42.8368 97.2933C41.951 96.4076 40.515 96.4076 39.6292 97.2933C38.7435 98.1791 38.7435 99.6151 39.6292 100.501C40.515 101.387 41.951 101.387 42.8368 100.501ZM37.2715 94.9356C38.1129 94.0941 38.1129 92.7299 37.2715 91.8884C36.43 91.047 35.0658 91.047 34.2243 91.8884C33.3829 92.7299 33.3829 94.0941 34.2243 94.9356C35.0658 95.777 36.43 95.777 37.2715 94.9356ZM28.8194 86.4835C28.0222 87.2806 28.0222 88.5731 28.8194 89.3702C29.6165 90.1674 30.909 90.1674 31.7062 89.3702C32.5033 88.5731 32.5033 87.2806 31.7062 86.4835C30.909 85.6863 29.6165 85.6863 28.8194 86.4835ZM23.4145 81.0785C22.6616 81.8314 22.6616 83.0521 23.4145 83.8049C24.1673 84.5578 25.388 84.5578 26.1409 83.8049C26.8937 83.0521 26.8937 81.8314 26.1409 81.0785C25.388 80.3257 24.1673 80.3257 23.4145 81.0785ZM18.0095 75.6736C17.3009 76.3822 17.3009 77.531 18.0095 78.2396C18.7181 78.9482 19.8669 78.9482 20.5755 78.2396C21.2841 77.531 21.2841 76.3822 20.5755 75.6736C19.8669 74.965 18.7181 74.965 18.0095 75.6736ZM110.255 156.386C108.837 157.803 108.837 160.101 110.255 161.518C111.672 162.935 113.969 162.935 115.387 161.518C116.804 160.101 116.804 157.803 115.387 156.386C113.969 154.969 111.672 154.969 110.255 156.386ZM109.821 155.953C111.194 154.58 111.194 152.354 109.821 150.981C108.448 149.608 106.223 149.608 104.85 150.981C103.477 152.354 103.477 154.58 104.85 155.953C106.223 157.326 108.448 157.326 109.821 155.953ZM104.256 150.388C105.585 149.059 105.585 146.905 104.256 145.576C102.927 144.248 100.773 144.248 99.4447 145.576C98.1161 146.905 98.1161 149.059 99.4447 150.388C100.773 151.716 102.927 151.716 104.256 150.388ZM98.6907 144.822C99.975 143.538 99.975 141.456 98.6907 140.171C97.4064 138.887 95.3241 138.887 94.0398 140.171C92.7555 141.456 92.7555 143.538 94.0398 144.822C95.3241 146.107 97.4064 146.107 98.6907 144.822ZM88.6349 134.767C87.3949 136.007 87.3949 138.017 88.6349 139.257C89.8749 140.497 91.8854 140.497 93.1254 139.257C94.3654 138.017 94.3654 136.007 93.1254 134.767C91.8854 133.527 89.8749 133.527 88.6349 134.767ZM83.23 129.362C82.0342 130.557 82.0342 132.496 83.23 133.692C84.4257 134.888 86.3644 134.888 87.5601 133.692C88.7558 132.496 88.7558 130.557 87.5601 129.362C86.3644 128.166 84.4257 128.166 83.23 129.362ZM77.825 128.126C78.9765 129.278 80.8433 129.278 81.9948 128.126C83.1463 126.975 83.1463 125.108 81.9948 123.957C80.8433 122.805 78.9765 122.805 77.825 123.957C76.6736 125.108 76.6736 126.975 77.825 128.126ZM72.4201 118.552C71.3129 119.659 71.3129 121.454 72.4201 122.561C73.5273 123.668 75.3223 123.668 76.4295 122.561C77.5367 121.454 77.5367 119.659 76.4295 118.552C75.3223 117.445 73.5273 117.445 72.4201 118.552ZM67.0152 116.996C68.0781 118.059 69.8013 118.059 70.8642 116.996C71.9271 115.933 71.9271 114.21 70.8642 113.147C69.8013 112.084 68.0781 112.084 67.0152 113.147C65.9523 114.21 65.9523 115.933 67.0152 116.996ZM61.6102 111.431C62.6288 112.449 64.2803 112.449 65.2989 111.431C66.3175 110.412 66.3175 108.761 65.2989 107.742C64.2803 106.723 62.6288 106.723 61.6102 107.742C60.5916 108.761 60.5916 110.412 61.6102 111.431ZM56.2053 102.337C55.231 103.311 55.231 104.891 56.2053 105.865C57.1796 106.84 58.7593 106.84 59.7336 105.865C60.7079 104.891 60.7079 103.311 59.7336 102.337C58.7593 101.363 57.1796 101.363 56.2053 102.337ZM54.1683 100.3C55.0983 99.3699 55.0983 97.8621 54.1683 96.9321C53.2383 96.002 51.7304 96.002 50.8004 96.9321C49.8704 97.8621 49.8704 99.3699 50.8004 100.3C51.7304 101.23 53.2383 101.23 54.1683 100.3ZM48.603 94.7346C49.4887 93.8489 49.4887 92.4129 48.603 91.5271C47.7172 90.6414 46.2812 90.6414 45.3955 91.5271C44.5097 92.4129 44.5097 93.8489 45.3955 94.7346C46.2812 95.6204 47.7172 95.6204 48.603 94.7346ZM43.0377 89.1693C43.8791 88.3279 43.8791 86.9636 43.0377 86.1222C42.1962 85.2807 40.832 85.2807 39.9905 86.1222C39.1491 86.9636 39.1491 88.3279 39.9905 89.1693C40.832 90.0108 42.1962 90.0108 43.0377 89.1693ZM37.4724 83.604C38.2695 82.8069 38.2695 81.5144 37.4724 80.7173C36.6752 79.9201 35.3828 79.9201 34.5856 80.7173C33.7884 81.5144 33.7884 82.8069 34.5856 83.604C35.3828 84.4012 36.6752 84.4012 37.4724 83.604ZM31.9071 78.0387C32.6599 77.2859 32.6599 76.0652 31.9071 75.3123C31.1542 74.5595 29.9335 74.5595 29.1807 75.3123C28.4278 76.0652 28.4278 77.2859 29.1807 78.0387C29.9335 78.7916 31.1542 78.7916 31.9071 78.0387ZM23.7757 69.9074C23.0672 70.616 23.0672 71.7648 23.7757 72.4734C24.4843 73.182 25.6332 73.182 26.3418 72.4734C27.0503 71.7648 27.0503 70.616 26.3418 69.9074C25.6332 69.1988 24.4843 69.1988 23.7757 69.9074ZM116.021 150.62C114.604 152.037 114.604 154.335 116.021 155.752C117.438 157.169 119.736 157.169 121.153 155.752C122.57 154.335 122.57 152.037 121.153 150.62C119.736 149.203 117.438 149.203 116.021 150.62ZM115.588 150.187C116.96 148.814 116.96 146.588 115.588 145.215C114.215 143.842 111.989 143.842 110.616 145.215C109.243 146.588 109.243 148.814 110.616 150.187C111.989 151.56 114.215 151.56 115.588 150.187ZM110.022 144.621C111.351 143.293 111.351 141.139 110.022 139.81C108.694 138.482 106.54 138.482 105.211 139.81C103.882 141.139 103.882 143.293 105.211 144.621C106.54 145.95 108.694 145.95 110.022 144.621ZM104.457 139.056C105.741 137.772 105.741 135.69 104.457 134.405C103.173 133.121 101.09 133.121 99.806 134.405C98.5217 135.69 98.5217 137.772 99.806 139.056C101.09 140.34 103.173 140.34 104.457 139.056ZM98.8916 133.491C100.132 132.251 100.132 130.24 98.8916 129C97.6516 127.76 95.6411 127.76 94.4011 129C93.1611 130.24 93.1611 132.251 94.4011 133.491C95.6411 134.731 97.6516 134.731 98.8916 133.491ZM88.9962 123.595C87.8004 124.791 87.8004 126.73 88.9962 127.926C90.1919 129.121 92.1306 129.121 93.3263 127.926C94.5221 126.73 94.5221 124.791 93.3263 123.595C92.1306 122.4 90.1919 122.4 88.9962 123.595ZM83.5912 122.36C84.7427 123.512 86.6096 123.512 87.761 122.36C88.9125 121.209 88.9125 119.342 87.761 118.19C86.6096 117.039 84.7427 117.039 83.5912 118.19C82.4398 119.342 82.4398 121.209 83.5912 122.36ZM78.1863 112.786C77.0791 113.893 77.0791 115.688 78.1863 116.795C79.2935 117.902 81.0885 117.902 82.1957 116.795C83.3029 115.688 83.3029 113.893 82.1957 112.786C81.0885 111.678 79.2935 111.678 78.1863 112.786ZM72.7814 111.23C73.8443 112.293 75.5675 112.293 76.6304 111.23C77.6933 110.167 77.6933 108.444 76.6304 107.381C75.5675 106.318 73.8443 106.318 72.7814 107.381C71.7185 108.444 71.7185 110.167 72.7814 111.23ZM67.3764 105.664C68.395 106.683 70.0465 106.683 71.0651 105.664C72.0837 104.646 72.0837 102.994 71.0651 101.976C70.0465 100.957 68.395 100.957 67.3764 101.976C66.3579 102.994 66.3579 104.646 67.3764 105.664ZM61.9715 96.5708C60.9972 97.5451 60.9972 99.1247 61.9715 100.099C62.9458 101.073 64.5255 101.073 65.4998 100.099C66.4741 99.1247 66.4741 97.5451 65.4998 96.5708C64.5255 95.5965 62.9458 95.5965 61.9715 96.5708ZM59.9345 94.5337C60.8645 93.6037 60.8645 92.0959 59.9345 91.1658C59.0045 90.2358 57.4966 90.2358 56.5666 91.1658C55.6366 92.0959 55.6366 93.6037 56.5666 94.5337C57.4966 95.4638 59.0045 95.4638 59.9345 94.5337ZM54.3692 88.9684C55.2549 88.0827 55.2549 86.6466 54.3692 85.7609C53.4835 84.8752 52.0474 84.8752 51.1617 85.7609C50.2759 86.6466 50.2759 88.0827 51.1617 88.9684C52.0474 89.8542 53.4835 89.8542 54.3692 88.9684ZM48.8039 83.4031C49.6453 82.5617 49.6453 81.1974 48.8039 80.356C47.9624 79.5145 46.5982 79.5145 45.7567 80.356C44.9153 81.1974 44.9153 82.5617 45.7567 83.4031C46.5982 84.2446 47.9624 84.2446 48.8039 83.4031ZM43.2386 77.8378C44.0357 77.0407 44.0357 75.7482 43.2386 74.9511C42.4414 74.1539 41.149 74.1539 40.3518 74.9511C39.5547 75.7482 39.5547 77.0407 40.3518 77.8378C41.149 78.635 42.4414 78.635 43.2386 77.8378ZM37.6733 72.2725C38.4261 71.5196 38.4261 70.299 37.6733 69.5461C36.9204 68.7932 35.6998 68.7932 34.9469 69.5461C34.194 70.299 34.194 71.5196 34.9469 72.2725C35.6998 73.0254 36.9204 73.0254 37.6733 72.2725ZM32.108 66.7072C32.8166 65.9986 32.8166 64.8498 32.108 64.1412C31.3994 63.4326 30.2505 63.4326 29.542 64.1412C28.8334 64.8498 28.8334 65.9986 29.542 66.7072C30.2505 67.4158 31.3994 67.4158 32.108 66.7072ZM121.787 144.854C120.37 146.271 120.37 148.569 121.787 149.986C123.204 151.403 125.502 151.403 126.919 149.986C128.336 148.569 128.336 146.271 126.919 144.854C125.502 143.437 123.204 143.437 121.787 144.854ZM121.354 144.421C122.727 143.048 122.727 140.822 121.354 139.449C119.981 138.076 117.755 138.076 116.382 139.449C115.009 140.822 115.009 143.048 116.382 144.421C117.755 145.793 119.981 145.793 121.354 144.421ZM115.788 138.855C117.117 137.527 117.117 135.373 115.788 134.044C114.46 132.715 112.306 132.715 110.977 134.044C109.649 135.373 109.649 137.527 110.977 138.855C112.306 140.184 114.46 140.184 115.788 138.855ZM110.223 133.29C111.507 132.006 111.507 129.923 110.223 128.639C108.939 127.355 106.857 127.355 105.572 128.639C104.288 129.923 104.288 132.006 105.572 133.29C106.857 134.574 108.939 134.574 110.223 133.29ZM104.658 127.725C105.898 126.485 105.898 124.474 104.658 123.234C103.418 121.994 101.407 121.994 100.167 123.234C98.9273 124.474 98.9273 126.485 100.167 127.725C101.407 128.965 103.418 128.965 104.658 127.725ZM94.7624 117.829C93.5666 119.025 93.5666 120.964 94.7624 122.159C95.9581 123.355 97.8968 123.355 99.0925 122.159C100.288 120.964 100.288 119.025 99.0925 117.829C97.8968 116.633 95.9581 116.633 94.7624 117.829ZM89.3575 116.594C90.5089 117.746 92.3758 117.746 93.5272 116.594C94.6787 115.443 94.6787 113.576 93.5272 112.424C92.3758 111.273 90.5089 111.273 89.3575 112.424C88.206 113.576 88.206 115.443 89.3575 116.594ZM83.9525 107.019C82.8454 108.127 82.8454 109.922 83.9525 111.029C85.0597 112.136 86.8548 112.136 87.9619 111.029C89.0691 109.922 89.0691 108.127 87.9619 107.019C86.8548 105.912 85.0597 105.912 83.9525 107.019ZM78.5476 105.463C79.6105 106.526 81.3337 106.526 82.3966 105.463C83.4595 104.401 83.4595 102.677 82.3966 101.614C81.3337 100.552 79.6105 100.552 78.5476 101.614C77.4847 102.677 77.4847 104.401 78.5476 105.463ZM73.1427 99.8981C74.1613 100.917 75.8127 100.917 76.8313 99.8981C77.8499 98.8795 77.8499 97.2281 76.8313 96.2095C75.8127 95.1909 74.1613 95.1909 73.1427 96.2095C72.1241 97.2281 72.1241 98.8795 73.1427 99.8981ZM67.7377 90.8045C66.7634 91.7789 66.7634 93.3585 67.7377 94.3328C68.712 95.3071 70.2917 95.3071 71.266 94.3328C72.2403 93.3585 72.2403 91.7789 71.266 90.8045C70.2917 89.8303 68.712 89.8303 67.7377 90.8045ZM65.7007 88.7675C66.6307 87.8375 66.6307 86.3296 65.7007 85.3996C64.7707 84.4696 63.2628 84.4696 62.3328 85.3996C61.4028 86.3296 61.4028 87.8375 62.3328 88.7675C63.2628 89.6975 64.7707 89.6975 65.7007 88.7675ZM60.1354 83.2022C61.0211 82.3165 61.0211 80.8804 60.1354 79.9947C59.2497 79.109 57.8136 79.109 56.9279 79.9947C56.0421 80.8804 56.0421 82.3165 56.9279 83.2022C57.8136 84.0879 59.2497 84.0879 60.1354 83.2022ZM54.5701 77.6369C55.4115 76.7955 55.4115 75.4312 54.5701 74.5898C53.7286 73.7483 52.3644 73.7483 51.5229 74.5898C50.6815 75.4312 50.6815 76.7955 51.5229 77.6369C52.3644 78.4784 53.7286 78.4784 54.5701 77.6369ZM49.0048 72.0716C49.802 71.2744 49.802 69.982 49.0048 69.1848C48.2076 68.3877 46.9152 68.3877 46.118 69.1848C45.3209 69.982 45.3209 71.2744 46.118 72.0716C46.9152 72.8688 48.2076 72.8688 49.0048 72.0716ZM43.4395 66.5063C44.1924 65.7534 44.1924 64.5328 43.4395 63.7799C42.6866 63.027 41.466 63.027 40.7131 63.7799C39.9602 64.5328 39.9602 65.7534 40.7131 66.5063C41.466 67.2592 42.6866 67.2592 43.4395 66.5063ZM37.8742 60.941C38.5828 60.2324 38.5828 59.0836 37.8742 58.375C37.1656 57.6664 36.0167 57.6664 35.3082 58.375C34.5996 59.0836 34.5996 60.2324 35.3082 60.941C36.0167 61.6496 37.1656 61.6496 37.8742 60.941ZM127.553 139.088C126.136 140.505 126.136 142.802 127.553 144.22C128.97 145.637 131.268 145.637 132.685 144.22C134.102 142.802 134.102 140.505 132.685 139.088C131.268 137.67 128.97 137.67 127.553 139.088ZM127.12 138.654C128.493 137.281 128.493 135.056 127.12 133.683C125.747 132.31 123.521 132.31 122.148 133.683C120.775 135.056 120.775 137.281 122.148 138.654C123.521 140.027 125.747 140.027 127.12 138.654ZM121.555 133.089C122.883 131.76 122.883 129.606 121.555 128.278C120.226 126.949 118.072 126.949 116.743 128.278C115.415 129.606 115.415 131.76 116.743 133.089C118.072 134.418 120.226 134.418 121.555 133.089ZM115.989 127.524C117.274 126.239 117.274 124.157 115.989 122.873C114.705 121.589 112.623 121.589 111.338 122.873C110.054 124.157 110.054 126.239 111.338 127.524C112.623 128.808 114.705 128.808 115.989 127.524ZM110.424 121.958C111.664 120.718 111.664 118.708 110.424 117.468C109.184 116.228 107.174 116.228 105.934 117.468C104.694 118.708 104.694 120.718 105.934 121.958C107.174 123.198 109.184 123.198 110.424 121.958ZM100.529 112.063C99.3329 113.259 99.3329 115.197 100.529 116.393C101.724 117.589 103.663 117.589 104.859 116.393C106.055 115.197 106.055 113.259 104.859 112.063C103.663 110.867 101.724 110.867 100.529 112.063ZM95.1237 110.828C96.2751 111.979 98.142 111.979 99.2935 110.828C100.445 109.676 100.445 107.81 99.2935 106.658C98.142 105.507 96.2751 105.507 95.1237 106.658C93.9722 107.81 93.9722 109.676 95.1237 110.828ZM89.7187 101.253C88.6116 102.36 88.6116 104.155 89.7187 105.263C90.8259 106.37 92.621 106.37 93.7281 105.263C94.8353 104.155 94.8353 102.36 93.7281 101.253C92.621 100.146 90.8259 100.146 89.7187 101.253ZM84.3138 99.6972C85.3767 100.76 87.1 100.76 88.1628 99.6972C89.2257 98.6343 89.2257 96.9111 88.1628 95.8482C87.1 94.7853 85.3767 94.7853 84.3138 95.8482C83.2509 96.9111 83.2509 98.6343 84.3138 99.6972ZM78.9089 94.1319C79.9275 95.1505 81.5789 95.1505 82.5975 94.1319C83.6161 93.1133 83.6161 91.4619 82.5975 90.4433C81.5789 89.4247 79.9275 89.4247 78.9089 90.4433C77.8903 91.4619 77.8903 93.1133 78.9089 94.1319ZM73.504 85.0383C72.5296 86.0126 72.5296 87.5923 73.504 88.5666C74.4783 89.5409 76.0579 89.5409 77.0322 88.5666C78.0065 87.5923 78.0065 86.0126 77.0322 85.0383C76.0579 84.064 74.4783 84.064 73.504 85.0383ZM71.4669 83.0013C72.3969 82.0713 72.3969 80.5634 71.4669 79.6334C70.5369 78.7034 69.029 78.7034 68.099 79.6334C67.169 80.5634 67.169 82.0713 68.099 83.0013C69.029 83.9313 70.5369 83.9313 71.4669 83.0013ZM65.9016 77.436C66.7874 76.5503 66.7874 75.1142 65.9016 74.2285C65.0159 73.3427 63.5798 73.3427 62.6941 74.2285C61.8084 75.1142 61.8084 76.5503 62.6941 77.436C63.5798 78.3217 65.0159 78.3217 65.9016 77.436ZM60.3363 71.8707C61.1778 71.0292 61.1778 69.665 60.3363 68.8235C59.4949 67.9821 58.1306 67.9821 57.2892 68.8235C56.4477 69.665 56.4477 71.0292 57.2892 71.8707C58.1306 72.7121 59.4949 72.7121 60.3363 71.8707ZM54.771 66.3054C55.5682 65.5082 55.5682 64.2158 54.771 63.4186C53.9739 62.6215 52.6814 62.6215 51.8842 63.4186C51.0871 64.2158 51.0871 65.5082 51.8842 66.3054C52.6814 67.1025 53.9739 67.1025 54.771 66.3054ZM49.2057 60.7401C49.9586 59.9872 49.9586 58.7666 49.2057 58.0137C48.4528 57.2608 47.2322 57.2608 46.4793 58.0137C45.7264 58.7666 45.7264 59.9872 46.4793 60.7401C47.2322 61.493 48.4528 61.493 49.2057 60.7401ZM43.6404 55.1748C44.349 54.4662 44.349 53.3173 43.6404 52.6088C42.9318 51.9002 41.783 51.9002 41.0744 52.6088C40.3658 53.3173 40.3658 54.4662 41.0744 55.1748C41.783 55.8834 42.9318 55.8834 43.6404 55.1748ZM133.319 133.321C131.902 134.739 131.902 137.036 133.319 138.453C134.737 139.871 137.034 139.871 138.451 138.453C139.869 137.036 139.869 134.739 138.451 133.321C137.034 131.904 134.737 131.904 133.319 133.321ZM132.886 132.888C134.259 131.515 134.259 129.289 132.886 127.916C131.513 126.544 129.287 126.544 127.915 127.916C126.542 129.289 126.542 131.515 127.915 132.888C129.287 134.261 131.513 134.261 132.886 132.888ZM127.321 127.323C128.649 125.994 128.649 123.84 127.321 122.512C125.992 121.183 123.838 121.183 122.51 122.512C121.181 123.84 121.181 125.994 122.51 127.323C123.838 128.651 125.992 128.651 127.321 127.323ZM121.756 121.758C123.04 120.473 123.04 118.391 121.756 117.107C120.471 115.822 118.389 115.822 117.105 117.107C115.82 118.391 115.82 120.473 117.105 121.758C118.389 123.042 120.471 123.042 121.756 121.758ZM116.19 116.192C117.43 114.952 117.43 112.942 116.19 111.702C114.95 110.462 112.94 110.462 111.7 111.702C110.46 112.942 110.46 114.952 111.7 116.192C112.94 117.432 114.95 117.432 116.19 116.192ZM106.295 106.297C105.099 107.493 105.099 109.431 106.295 110.627C107.491 111.823 109.429 111.823 110.625 110.627C111.821 109.431 111.821 107.493 110.625 106.297C109.429 105.101 107.491 105.101 106.295 106.297ZM100.89 105.062C102.041 106.213 103.908 106.213 105.06 105.062C106.211 103.91 106.211 102.043 105.06 100.892C103.908 99.7404 102.041 99.7404 100.89 100.892C99.7384 102.043 99.7384 103.91 100.89 105.062ZM95.485 95.4869C94.3778 96.5941 94.3778 98.3891 95.485 99.4963C96.5921 100.603 98.3872 100.603 99.4944 99.4963C100.602 98.3891 100.602 96.5941 99.4944 95.4869C98.3872 94.3797 96.5921 94.3797 95.485 95.4869ZM90.08 93.931C91.1429 94.9939 92.8662 94.9939 93.9291 93.931C94.9919 92.8681 94.9919 91.1449 93.9291 90.082C92.8662 89.0191 91.1429 89.0191 90.08 90.082C89.0171 91.1449 89.0171 92.8681 90.08 93.931ZM84.6751 88.3657C85.6937 89.3843 87.3452 89.3843 88.3638 88.3657C89.3823 87.3471 89.3823 85.6956 88.3638 84.677C87.3452 83.6585 85.6937 83.6585 84.6751 84.677C83.6565 85.6956 83.6565 87.3471 84.6751 88.3657ZM79.2702 79.2721C78.2959 80.2464 78.2959 81.8261 79.2702 82.8004C80.2445 83.7747 81.8241 83.7747 82.7984 82.8004C83.7728 81.8261 83.7728 80.2464 82.7984 79.2721C81.8241 78.2978 80.2445 78.2978 79.2702 79.2721ZM77.2331 77.2351C78.1632 76.3051 78.1632 74.7972 77.2331 73.8672C76.3031 72.9372 74.7953 72.9372 73.8652 73.8672C72.9352 74.7972 72.9352 76.3051 73.8652 77.2351C74.7953 78.1651 76.3031 78.1651 77.2331 77.2351ZM71.6678 71.6698C72.5536 70.784 72.5536 69.348 71.6678 68.4623C70.7821 67.5765 69.346 67.5765 68.4603 68.4623C67.5746 69.348 67.5746 70.784 68.4603 71.6698C69.346 72.5555 70.7821 72.5555 71.6678 71.6698ZM66.1025 66.1045C66.944 65.263 66.944 63.8988 66.1025 63.0573C65.2611 62.2159 63.8968 62.2159 63.0554 63.0573C62.2139 63.8988 62.2139 65.263 63.0554 66.1045C63.8968 66.9459 65.2611 66.9459 66.1025 66.1045ZM60.5372 60.5392C61.3344 59.742 61.3344 58.4496 60.5372 57.6524C59.7401 56.8552 58.4476 56.8552 57.6504 57.6524C56.8533 58.4496 56.8533 59.742 57.6504 60.5392C58.4476 61.3363 59.7401 61.3363 60.5372 60.5392ZM54.9719 54.9739C55.7248 54.221 55.7248 53.0004 54.9719 52.2475C54.219 51.4946 52.9984 51.4946 52.2455 52.2475C51.4926 53.0004 51.4926 54.221 52.2455 54.9739C52.9984 55.7267 54.219 55.7267 54.9719 54.9739ZM49.4066 49.4086C50.1152 48.7 50.1152 47.5511 49.4066 46.8425C48.698 46.134 47.5492 46.134 46.8406 46.8425C46.132 47.5511 46.132 48.7 46.8406 49.4086C47.5492 50.1171 48.698 50.1171 49.4066 49.4086ZM139.086 127.555C137.669 128.972 137.669 131.27 139.086 132.687C140.503 134.104 142.801 134.104 144.218 132.687C145.635 131.27 145.635 128.972 144.218 127.555C142.801 126.138 140.503 126.138 139.086 127.555ZM138.652 127.122C140.025 125.749 140.025 123.523 138.652 122.15C137.28 120.777 135.054 120.777 133.681 122.15C132.308 123.523 132.308 125.749 133.681 127.122C135.054 128.495 137.28 128.495 138.652 127.122ZM133.087 121.557C134.416 120.228 134.416 118.074 133.087 116.745C131.758 115.417 129.604 115.417 128.276 116.745C126.947 118.074 126.947 120.228 128.276 121.557C129.604 122.885 131.758 122.885 133.087 121.557ZM127.522 115.991C128.806 114.707 128.806 112.625 127.522 111.34C126.237 110.056 124.155 110.056 122.871 111.34C121.587 112.625 121.587 114.707 122.871 115.991C124.155 117.276 126.237 117.276 127.522 115.991ZM121.956 110.426C123.197 109.186 123.197 107.176 121.956 105.935C120.716 104.695 118.706 104.695 117.466 105.935C116.226 107.176 116.226 109.186 117.466 110.426C118.706 111.666 120.716 111.666 121.956 110.426ZM112.061 100.531C110.865 101.726 110.865 103.665 112.061 104.861C113.257 106.056 115.195 106.056 116.391 104.861C117.587 103.665 117.587 101.726 116.391 100.531C115.195 99.3348 113.257 99.3348 112.061 100.531ZM106.656 99.2954C107.808 100.447 109.674 100.447 110.826 99.2954C111.977 98.144 111.977 96.2771 110.826 95.1256C109.674 93.9742 107.808 93.9742 106.656 95.1256C105.505 96.2771 105.505 98.144 106.656 99.2954ZM101.251 89.7207C100.144 90.8279 100.144 92.6229 101.251 93.7301C102.358 94.8373 104.153 94.8373 105.261 93.7301C106.368 92.6229 106.368 90.8279 105.261 89.7207C104.153 88.6135 102.358 88.6135 101.251 89.7207ZM95.8462 88.1648C96.9091 89.2277 98.6324 89.2277 99.6953 88.1648C100.758 87.1019 100.758 85.3786 99.6953 84.3158C98.6324 83.2529 96.9091 83.2529 95.8462 84.3158C94.7834 85.3786 94.7834 87.1019 95.8462 88.1648ZM90.4413 82.5995C91.4599 83.6181 93.1114 83.6181 94.13 82.5995C95.1486 81.5809 95.1486 79.9294 94.13 78.9108C93.1114 77.8922 91.4599 77.8922 90.4413 78.9108C89.4227 79.9294 89.4227 81.5809 90.4413 82.5995ZM85.0364 73.5059C84.0621 74.4802 84.0621 76.0599 85.0364 77.0342C86.0107 78.0085 87.5904 78.0085 88.5647 77.0342C89.539 76.0599 89.539 74.4802 88.5647 73.5059C87.5904 72.5316 86.0107 72.5316 85.0364 73.5059ZM82.9994 71.4689C83.9294 70.5389 83.9294 69.031 82.9994 68.101C82.0693 67.171 80.5615 67.171 79.6314 68.101C78.7014 69.031 78.7014 70.5389 79.6314 71.4689C80.5615 72.3989 82.0693 72.3989 82.9994 71.4689ZM77.434 65.9036C78.3198 65.0178 78.3198 63.5818 77.434 62.6961C76.5483 61.8103 75.1123 61.8103 74.2265 62.6961C73.3408 63.5818 73.3408 65.0178 74.2265 65.9036C75.1123 66.7893 76.5483 66.7893 77.434 65.9036ZM71.8687 60.3383C72.7102 59.4968 72.7102 58.1326 71.8687 57.2911C71.0273 56.4497 69.663 56.4497 68.8216 57.2911C67.9801 58.1326 67.9801 59.4968 68.8216 60.3383C69.663 61.1797 71.0273 61.1797 71.8687 60.3383ZM66.3034 54.773C67.1006 53.9758 67.1006 52.6834 66.3034 51.8862C65.5063 51.089 64.2138 51.089 63.4167 51.8862C62.6195 52.6834 62.6195 53.9758 63.4167 54.773C64.2138 55.5701 65.5063 55.5701 66.3034 54.773ZM60.7381 49.2077C61.491 48.4548 61.491 47.2341 60.7381 46.4813C59.9853 45.7284 58.7646 45.7284 58.0117 46.4813C57.2589 47.2341 57.2589 48.4548 58.0117 49.2077C58.7646 49.9605 59.9853 49.9605 60.7381 49.2077ZM55.1728 43.6424C55.8814 42.9338 55.8814 41.7849 55.1728 41.0763C54.4642 40.3678 53.3154 40.3678 52.6068 41.0763C51.8982 41.7849 51.8982 42.9338 52.6068 43.6424C53.3154 44.3509 54.4642 44.3509 55.1728 43.6424ZM144.852 121.789C143.435 123.206 143.435 125.504 144.852 126.921C146.269 128.338 148.567 128.338 149.984 126.921C151.401 125.504 151.401 123.206 149.984 121.789C148.567 120.372 146.269 120.372 144.852 121.789ZM144.419 121.356C145.792 119.983 145.792 117.757 144.419 116.384C143.046 115.011 140.82 115.011 139.447 116.384C138.074 117.757 138.074 119.983 139.447 121.356C140.82 122.729 143.046 122.729 144.419 121.356ZM138.853 115.79C140.182 114.462 140.182 112.308 138.853 110.979C137.525 109.651 135.371 109.651 134.042 110.979C132.713 112.308 132.713 114.462 134.042 115.79C135.371 117.119 137.525 117.119 138.853 115.79ZM133.288 110.225C134.572 108.941 134.572 106.859 133.288 105.574C132.004 104.29 129.921 104.29 128.637 105.574C127.353 106.859 127.353 108.941 128.637 110.225C129.921 111.509 132.004 111.509 133.288 110.225ZM127.723 104.66C128.963 103.42 128.963 101.409 127.723 100.169C126.483 98.9292 124.472 98.9292 123.232 100.169C121.992 101.409 121.992 103.42 123.232 104.66C124.472 105.9 126.483 105.9 127.723 104.66ZM117.827 94.7643C116.632 95.9601 116.632 97.8988 117.827 99.0945C119.023 100.29 120.962 100.29 122.157 99.0945C123.353 97.8988 123.353 95.9601 122.157 94.7643C120.962 93.5686 119.023 93.5686 117.827 94.7643ZM112.422 89.3594C111.271 90.5109 111.271 92.3777 112.422 93.5292C113.574 94.6806 115.441 94.6806 116.592 93.5292C117.744 92.3777 117.744 90.5109 116.592 89.3594C115.441 88.208 113.574 88.208 112.422 89.3594ZM107.017 83.9545C105.91 85.0616 105.91 86.8567 107.017 87.9639C108.125 89.0711 109.92 89.0711 111.027 87.9639C112.134 86.8567 112.134 85.0616 111.027 83.9545C109.92 82.8473 108.125 82.8473 107.017 83.9545ZM101.612 82.3986C102.675 83.4615 104.399 83.4615 105.461 82.3986C106.524 81.3357 106.524 79.6124 105.461 78.5495C104.399 77.4867 102.675 77.4867 101.612 78.5495C100.55 79.6124 100.55 81.3357 101.612 82.3986ZM96.2075 76.8333C97.2261 77.8519 98.8776 77.8519 99.8962 76.8333C100.915 75.8147 100.915 74.1632 99.8962 73.1446C98.8776 72.126 97.2261 72.126 96.2075 73.1446C95.1889 74.1632 95.1889 75.8147 96.2075 76.8333ZM90.8026 67.7397C89.8283 68.714 89.8283 70.2937 90.8026 71.268C91.7769 72.2423 93.3566 72.2423 94.3309 71.268C95.3052 70.2937 95.3052 68.714 94.3309 67.7397C93.3566 66.7654 91.7769 66.7654 90.8026 67.7397ZM88.7656 65.7027C89.6956 64.7726 89.6956 63.2648 88.7656 62.3348C87.8355 61.4047 86.3277 61.4047 85.3977 62.3348C84.4676 63.2648 84.4676 64.7726 85.3977 65.7027C86.3277 66.6327 87.8355 66.6327 88.7656 65.7027ZM83.2003 60.1374C84.086 59.2516 84.086 57.8156 83.2003 56.9298C82.3145 56.0441 80.8785 56.0441 79.9927 56.9298C79.107 57.8156 79.107 59.2516 79.9927 60.1374C80.8785 61.0231 82.3145 61.0231 83.2003 60.1374ZM77.635 54.572C78.4764 53.7306 78.4764 52.3664 77.635 51.5249C76.7935 50.6835 75.4293 50.6835 74.5878 51.5249C73.7464 52.3664 73.7464 53.7306 74.5878 54.572C75.4293 55.4135 76.7935 55.4135 77.635 54.572ZM72.0697 49.0067C72.8668 48.2096 72.8668 46.9171 72.0697 46.12C71.2725 45.3228 69.98 45.3228 69.1829 46.12C68.3857 46.9171 68.3857 48.2096 69.1829 49.0067C69.98 49.8039 71.2725 49.8039 72.0697 49.0067ZM66.5043 43.4414C67.2572 42.6886 67.2572 41.4679 66.5043 40.715C65.7515 39.9622 64.5308 39.9622 63.778 40.715C63.0251 41.4679 63.0251 42.6886 63.778 43.4414C64.5308 44.1943 65.7515 44.1943 66.5043 43.4414ZM60.939 37.8761C61.6476 37.1676 61.6476 36.0187 60.939 35.3101C60.2304 34.6015 59.0816 34.6015 58.373 35.3101C57.6644 36.0187 57.6644 37.1676 58.373 37.8761C59.0816 38.5847 60.2304 38.5847 60.939 37.8761ZM150.618 116.023C149.201 117.44 149.201 119.738 150.618 121.155C152.035 122.572 154.333 122.572 155.75 121.155C157.167 119.738 157.167 117.44 155.75 116.023C154.333 114.606 152.035 114.606 150.618 116.023ZM150.185 115.589C151.558 114.217 151.558 111.991 150.185 110.618C148.812 109.245 146.586 109.245 145.213 110.618C143.84 111.991 143.84 114.217 145.213 115.589C146.586 116.962 148.812 116.962 150.185 115.589ZM144.62 110.024C145.948 108.696 145.948 106.542 144.62 105.213C143.291 103.884 141.137 103.884 139.808 105.213C138.48 106.542 138.48 108.696 139.808 110.024C141.137 111.353 143.291 111.353 144.62 110.024ZM139.054 104.459C140.339 103.175 140.339 101.092 139.054 99.808C137.77 98.5237 135.688 98.5237 134.403 99.808C133.119 101.092 133.119 103.175 134.403 104.459C135.688 105.743 137.77 105.743 139.054 104.459ZM133.489 98.8936C134.729 97.6536 134.729 95.6431 133.489 94.4031C132.249 93.163 130.238 93.163 128.998 94.4031C127.758 95.6431 127.758 97.6536 128.998 98.8936C130.238 100.134 132.249 100.134 133.489 98.8936ZM123.593 88.9981C122.398 90.1939 122.398 92.1325 123.593 93.3283C124.789 94.524 126.728 94.524 127.924 93.3283C129.119 92.1325 129.119 90.1939 127.924 88.9981C126.728 87.8024 124.789 87.8024 123.593 88.9981ZM118.189 83.5932C117.037 84.7446 117.037 86.6115 118.189 87.763C119.34 88.9144 121.207 88.9144 122.358 87.763C123.51 86.6115 123.51 84.7446 122.358 83.5932C121.207 82.4417 119.34 82.4417 118.189 83.5932ZM112.784 82.1977C113.891 83.3048 115.686 83.3048 116.793 82.1977C117.9 81.0905 117.9 79.2954 116.793 78.1883C115.686 77.0811 113.891 77.0811 112.784 78.1883C111.676 79.2954 111.676 81.0905 112.784 82.1977ZM107.379 76.6324C108.442 77.6952 110.165 77.6952 111.228 76.6324C112.291 75.5695 112.291 73.8462 111.228 72.7833C110.165 71.7205 108.442 71.7205 107.379 72.7833C106.316 73.8462 106.316 75.5695 107.379 76.6324ZM101.974 71.0671C102.992 72.0857 104.644 72.0857 105.662 71.0671C106.681 70.0485 106.681 68.397 105.662 67.3784C104.644 66.3598 102.992 66.3598 101.974 67.3784C100.955 68.397 100.955 70.0485 101.974 71.0671ZM96.5688 61.9735C95.5945 62.9478 95.5945 64.5274 96.5688 65.5017C97.5431 66.4761 99.1228 66.4761 100.097 65.5017C101.071 64.5274 101.071 62.9478 100.097 61.9735C99.1228 60.9992 97.5431 60.9992 96.5688 61.9735ZM94.5318 59.9364C95.4618 59.0064 95.4618 57.4986 94.5318 56.5685C93.6018 55.6385 92.0939 55.6385 91.1639 56.5685C90.2339 57.4986 90.2339 59.0064 91.1639 59.9364C92.0939 60.8665 93.6018 60.8665 94.5318 59.9364ZM88.9665 54.3711C89.8522 53.4854 89.8522 52.0493 88.9665 51.1636C88.0807 50.2779 86.6447 50.2779 85.759 51.1636C84.8732 52.0493 84.8732 53.4854 85.759 54.3711C86.6447 55.2569 88.0807 55.2569 88.9665 54.3711ZM83.4012 48.8058C84.2426 47.9644 84.2426 46.6001 83.4012 45.7587C82.5597 44.9172 81.1955 44.9172 80.354 45.7587C79.5126 46.6001 79.5126 47.9644 80.354 48.8058C81.1955 49.6473 82.5597 49.6473 83.4012 48.8058ZM77.8359 43.2405C78.633 42.4434 78.633 41.1509 77.8359 40.3538C77.0387 39.5566 75.7463 39.5566 74.9491 40.3538C74.1519 41.1509 74.1519 42.4434 74.9491 43.2405C75.7463 44.0377 77.0387 44.0377 77.8359 43.2405ZM72.2706 37.6752C73.0234 36.9224 73.0234 35.7017 72.2706 34.9488C71.5177 34.196 70.297 34.196 69.5442 34.9488C68.7913 35.7017 68.7913 36.9224 69.5442 37.6752C70.297 38.4281 71.5177 38.4281 72.2706 37.6752ZM66.7052 32.1099C67.4138 31.4013 67.4138 30.2525 66.7052 29.5439C65.9967 28.8353 64.8478 28.8353 64.1392 29.5439C63.4306 30.2525 63.4306 31.4013 64.1392 32.1099C64.8478 32.8185 65.9967 32.8185 66.7052 32.1099ZM156.384 110.257C154.967 111.674 154.967 113.971 156.384 115.389C157.801 116.806 160.099 116.806 161.516 115.389C162.934 113.971 162.934 111.674 161.516 110.257C160.099 108.839 157.801 108.839 156.384 110.257ZM155.951 109.823C157.324 108.45 157.324 106.225 155.951 104.852C154.578 103.479 152.352 103.479 150.979 104.852C149.607 106.225 149.607 108.45 150.979 109.823C152.352 111.196 154.578 111.196 155.951 109.823ZM150.386 104.258C151.714 102.929 151.714 100.775 150.386 99.4467C149.057 98.1181 146.903 98.1181 145.574 99.4467C144.246 100.775 144.246 102.929 145.574 104.258C146.903 105.587 149.057 105.587 150.386 104.258ZM144.82 98.6927C146.105 97.4084 146.105 95.3261 144.82 94.0418C143.536 92.7575 141.454 92.7575 140.17 94.0418C138.885 95.3261 138.885 97.4084 140.17 98.6927C141.454 99.977 143.536 99.977 144.82 98.6927ZM139.255 93.1274C140.495 91.8873 140.495 89.8769 139.255 88.6368C138.015 87.3968 136.005 87.3968 134.765 88.6368C133.525 89.8769 133.525 91.8873 134.765 93.1274C136.005 94.3674 138.015 94.3674 139.255 93.1274ZM129.36 83.2319C128.164 84.4276 128.164 86.3663 129.36 87.5621C130.555 88.7578 132.494 88.7578 133.69 87.5621C134.886 86.3663 134.886 84.4276 133.69 83.2319C132.494 82.0362 130.555 82.0362 129.36 83.2319ZM123.955 77.827C122.803 78.9784 122.803 80.8453 123.955 81.9968C125.106 83.1482 126.973 83.1482 128.125 81.9968C129.276 80.8453 129.276 78.9784 128.125 77.827C126.973 76.6755 125.106 76.6755 123.955 77.827ZM118.55 76.4314C119.657 77.5386 121.452 77.5386 122.559 76.4314C123.666 75.3243 123.666 73.5292 122.559 72.4221C121.452 71.3149 119.657 71.3149 118.55 72.4221C117.443 73.5292 117.443 75.3243 118.55 76.4314ZM113.145 70.8661C114.208 71.929 115.931 71.929 116.994 70.8661C118.057 69.8033 118.057 68.08 116.994 67.0171C115.931 65.9542 114.208 65.9542 113.145 67.0171C112.082 68.08 112.082 69.8033 113.145 70.8661ZM111.429 65.3008C112.447 64.2822 112.447 62.6308 111.429 61.6122C110.41 60.5936 108.759 60.5936 107.74 61.6122C106.721 62.6308 106.721 64.2822 107.74 65.3008C108.759 66.3194 110.41 66.3194 111.429 65.3008ZM102.335 56.2073C101.361 57.1816 101.361 58.7612 102.335 59.7355C103.309 60.7098 104.889 60.7098 105.863 59.7355C106.838 58.7612 106.838 57.1816 105.863 56.2073C104.889 55.233 103.309 55.233 102.335 56.2073ZM100.298 54.1702C101.228 53.2402 101.228 51.7323 100.298 50.8023C99.368 49.8723 97.8601 49.8723 96.9301 50.8023C96.0001 51.7323 96.0001 53.2402 96.9301 54.1702C97.8601 55.1003 99.368 55.1003 100.298 54.1702ZM94.7327 48.6049C95.6184 47.7192 95.6184 46.2831 94.7327 45.3974C93.847 44.5117 92.4109 44.5117 91.5252 45.3974C90.6394 46.2831 90.6394 47.7192 91.5252 48.6049C92.4109 49.4907 93.847 49.4907 94.7327 48.6049ZM89.1674 43.0396C90.0088 42.1982 90.0088 40.8339 89.1674 39.9925C88.3259 39.151 86.9617 39.151 86.1202 39.9925C85.2788 40.8339 85.2788 42.1982 86.1202 43.0396C86.9617 43.8811 88.3259 43.8811 89.1674 43.0396ZM83.6021 37.4743C84.3992 36.6772 84.3992 35.3847 83.6021 34.5876C82.8049 33.7904 81.5125 33.7904 80.7153 34.5876C79.9181 35.3847 79.9181 36.6772 80.7153 37.4743C81.5125 38.2715 82.8049 38.2715 83.6021 37.4743ZM78.0368 31.909C78.7896 31.1561 78.7896 29.9355 78.0368 29.1826C77.2839 28.4297 76.0633 28.4297 75.3104 29.1826C74.5575 29.9355 74.5575 31.1561 75.3104 31.909C76.0633 32.6619 77.2839 32.6619 78.0368 31.909ZM72.4715 26.3437C73.1801 25.6351 73.1801 24.4863 72.4715 23.7777C71.7629 23.0691 70.614 23.0691 69.9054 23.7777C69.1969 24.4863 69.1969 25.6351 69.9054 26.3437C70.614 27.0523 71.7629 27.0523 72.4715 26.3437ZM162.151 104.49C160.733 105.908 160.733 108.205 162.151 109.622C163.568 111.04 165.865 111.04 167.283 109.622C168.7 108.205 168.7 105.908 167.283 104.49C165.865 103.073 163.568 103.073 162.151 104.49ZM161.717 104.057C163.09 102.684 163.09 100.458 161.717 99.0854C160.344 97.7125 158.118 97.7125 156.746 99.0854C155.373 100.458 155.373 102.684 156.746 104.057C158.118 105.43 160.344 105.43 161.717 104.057ZM156.152 98.4918C157.481 97.1632 157.481 95.0091 156.152 93.6805C154.823 92.3519 152.669 92.3519 151.341 93.6805C150.012 95.0091 150.012 97.1632 151.341 98.4918C152.669 99.8204 154.823 99.8204 156.152 98.4918ZM150.587 92.9265C151.871 91.6422 151.871 89.5599 150.587 88.2756C149.302 86.9912 147.22 86.9912 145.936 88.2756C144.651 89.5599 144.651 91.6422 145.936 92.9265C147.22 94.2108 149.302 94.2108 150.587 92.9265ZM145.021 87.3612C146.261 86.1211 146.261 84.1107 145.021 82.8706C143.781 81.6306 141.771 81.6306 140.531 82.8706C139.291 84.1107 139.291 86.1211 140.531 87.3612C141.771 88.6012 143.781 88.6012 145.021 87.3612ZM135.126 77.4657C133.93 78.6614 133.93 80.6001 135.126 81.7959C136.322 82.9916 138.26 82.9916 139.456 81.7959C140.652 80.6001 140.652 78.6614 139.456 77.4657C138.26 76.27 136.322 76.27 135.126 77.4657ZM129.721 72.0608C128.57 73.2122 128.57 75.0791 129.721 76.2305C130.872 77.382 132.739 77.382 133.891 76.2305C135.042 75.0791 135.042 73.2122 133.891 72.0608C132.739 70.9093 130.872 70.9093 129.721 72.0608ZM124.316 70.6652C125.423 71.7724 127.218 71.7724 128.325 70.6652C129.433 69.5581 129.433 67.763 128.325 66.6558C127.218 65.5487 125.423 65.5487 124.316 66.6558C123.209 67.763 123.209 69.5581 124.316 70.6652ZM118.911 61.2509C117.848 62.3138 117.848 64.0371 118.911 65.0999C119.974 66.1628 121.697 66.1628 122.76 65.0999C123.823 64.0371 123.823 62.3138 122.76 61.2509C121.697 60.188 119.974 60.188 118.911 61.2509ZM117.195 59.5346C118.213 58.516 118.213 56.8646 117.195 55.846C116.176 54.8274 114.525 54.8274 113.506 55.846C112.488 56.8646 112.488 58.516 113.506 59.5346C114.525 60.5532 116.176 60.5532 117.195 59.5346ZM111.63 53.9693C112.604 52.995 112.604 51.4154 111.63 50.441C110.655 49.4667 109.076 49.4667 108.101 50.441C107.127 51.4154 107.127 52.995 108.101 53.9693C109.076 54.9436 110.655 54.9436 111.63 53.9693ZM106.064 48.404C106.994 47.474 106.994 45.9661 106.064 45.0361C105.134 44.1061 103.626 44.1061 102.696 45.0361C101.766 45.9661 101.766 47.474 102.696 48.404C103.626 49.334 105.134 49.334 106.064 48.404ZM100.499 42.8387C101.385 41.953 101.385 40.5169 100.499 39.6312C99.6132 38.7455 98.1771 38.7455 97.2914 39.6312C96.4057 40.5169 96.4057 41.953 97.2914 42.8387C98.1771 43.7244 99.6132 43.7244 100.499 42.8387ZM94.9336 37.2734C95.775 36.432 95.775 35.0677 94.9336 34.2263C94.0922 33.3848 92.7279 33.3848 91.8865 34.2263C91.045 35.0677 91.045 36.432 91.8865 37.2734C92.7279 38.1149 94.0922 38.1149 94.9336 37.2734ZM89.3683 31.7081C90.1655 30.9109 90.1655 29.6185 89.3683 28.8213C88.5711 28.0242 87.2787 28.0242 86.4815 28.8213C85.6844 29.6185 85.6844 30.9109 86.4815 31.7081C87.2787 32.5053 88.5711 32.5053 89.3683 31.7081ZM83.803 26.1428C84.5559 25.3899 84.5559 24.1693 83.803 23.4164C83.0501 22.6635 81.8295 22.6635 81.0766 23.4164C80.3237 24.1693 80.3237 25.3899 81.0766 26.1428C81.8295 26.8957 83.0501 26.8957 83.803 26.1428ZM78.2377 20.5775C78.9463 19.8689 78.9463 18.7201 78.2377 18.0115C77.5291 17.3029 76.3802 17.3029 75.6717 18.0115C74.9631 18.7201 74.9631 19.8689 75.6717 20.5775C76.3802 21.2861 77.5291 21.2861 78.2377 20.5775ZM167.917 98.7241C166.5 100.141 166.5 102.439 167.917 103.856C169.334 105.273 171.632 105.273 173.049 103.856C174.466 102.439 174.466 100.141 173.049 98.7241C171.632 97.307 169.334 97.307 167.917 98.7241ZM167.483 98.2909C168.856 96.918 168.856 94.6921 167.483 93.3192C166.111 91.9463 163.885 91.9463 162.512 93.3192C161.139 94.6921 161.139 96.918 162.512 98.2909C163.885 99.6637 166.111 99.6637 167.483 98.2909ZM161.918 92.7256C163.247 91.397 163.247 89.2429 161.918 87.9143C160.59 86.5857 158.435 86.5857 157.107 87.9143C155.778 89.2429 155.778 91.397 157.107 92.7256C158.435 94.0542 160.59 94.0542 161.918 92.7256ZM156.353 87.1602C157.637 85.8759 157.637 83.7937 156.353 82.5093C155.069 81.225 152.986 81.225 151.702 82.5093C150.418 83.7937 150.418 85.8759 151.702 87.1602C152.986 88.4446 155.069 88.4446 156.353 87.1602ZM146.297 77.1044C145.057 78.3444 145.057 80.3549 146.297 81.5949C147.537 82.835 149.548 82.835 150.788 81.5949C152.028 80.3549 152.028 78.3444 150.788 77.1044C149.548 75.8644 147.537 75.8644 146.297 77.1044ZM140.892 71.6995C139.696 72.8952 139.696 74.8339 140.892 76.0296C142.088 77.2254 144.027 77.2254 145.222 76.0296C146.418 74.8339 146.418 72.8952 145.222 71.6995C144.027 70.5037 142.088 70.5037 140.892 71.6995ZM135.487 66.2945C134.336 67.446 134.336 69.3129 135.487 70.4643C136.639 71.6158 138.506 71.6158 139.657 70.4643C140.808 69.3129 140.808 67.446 139.657 66.2945C138.506 65.1431 136.639 65.1431 135.487 66.2945ZM130.082 64.899C131.189 66.0062 132.984 66.0062 134.092 64.899C135.199 63.7919 135.199 61.9968 134.092 60.8896C132.984 59.7825 131.189 59.7825 130.082 60.8896C128.975 61.9968 128.975 63.7919 130.082 64.899ZM124.677 55.4847C123.614 56.5476 123.614 58.2708 124.677 59.3337C125.74 60.3966 127.463 60.3966 128.526 59.3337C129.589 58.2708 129.589 56.5476 128.526 55.4847C127.463 54.4218 125.74 54.4218 124.677 55.4847ZM122.961 53.7684C123.98 52.7498 123.98 51.0984 122.961 50.0798C121.942 49.0612 120.291 49.0612 119.272 50.0798C118.254 51.0984 118.254 52.7498 119.272 53.7684C120.291 54.787 121.942 54.787 122.961 53.7684ZM117.396 48.2031C118.37 47.2288 118.37 45.6491 117.396 44.6748C116.421 43.7005 114.842 43.7005 113.867 44.6748C112.893 45.6491 112.893 47.2288 113.867 48.2031C114.842 49.1774 116.421 49.1774 117.396 48.2031ZM111.83 42.6378C112.76 41.7078 112.76 40.1999 111.83 39.2699C110.9 38.3399 109.393 38.3399 108.463 39.2699C107.533 40.1999 107.533 41.7078 108.463 42.6378C109.393 43.5678 110.9 43.5678 111.83 42.6378ZM106.265 37.0725C107.151 36.1868 107.151 34.7507 106.265 33.865C105.379 32.9792 103.943 32.9792 103.058 33.865C102.172 34.7507 102.172 36.1868 103.058 37.0725C103.943 37.9582 105.379 37.9582 106.265 37.0725ZM100.7 31.5072C101.541 30.6658 101.541 29.3015 100.7 28.46C99.8584 27.6186 98.4941 27.6186 97.6527 28.46C96.8112 29.3015 96.8112 30.6658 97.6527 31.5072C98.4941 32.3486 99.8584 32.3486 100.7 31.5072ZM95.1345 25.9419C95.9317 25.1447 95.9317 23.8523 95.1345 23.0551C94.3374 22.258 93.0449 22.258 92.2477 23.0551C91.4506 23.8523 91.4506 25.1447 92.2477 25.9419C93.0449 26.739 94.3374 26.739 95.1345 25.9419ZM89.5692 20.3766C90.3221 19.6237 90.3221 18.4031 89.5692 17.6502C88.8163 16.8973 87.5957 16.8973 86.8428 17.6502C86.0899 18.4031 86.0899 19.6237 86.8428 20.3766C87.5957 21.1295 88.8163 21.1295 89.5692 20.3766ZM84.0039 14.8113C84.7125 14.1027 84.7125 12.9538 84.0039 12.2453C83.2953 11.5367 82.1465 11.5367 81.4379 12.2453C80.7293 12.9538 80.7293 14.1027 81.4379 14.8113C82.1465 15.5199 83.2953 15.5199 84.0039 14.8113ZM173.683 92.9579C172.266 94.3751 172.266 96.6728 173.683 98.09C175.1 99.5071 177.398 99.5071 178.815 98.09C180.232 96.6728 180.232 94.3751 178.815 92.9579C177.398 91.5407 175.1 91.5407 173.683 92.9579ZM173.25 92.5246C174.623 91.1518 174.623 88.9259 173.25 87.553C171.877 86.1801 169.651 86.1801 168.278 87.553C166.905 88.9259 166.905 91.1518 168.278 92.5246C169.651 93.8975 171.877 93.8975 173.25 92.5246ZM167.684 86.9593C169.013 85.6307 169.013 83.4766 167.684 82.148C166.356 80.8195 164.202 80.8195 162.873 82.148C161.545 83.4766 161.545 85.6307 162.873 86.9593C164.202 88.2879 166.356 88.2879 167.684 86.9593ZM157.468 76.7431C156.184 78.0274 156.184 80.1097 157.468 81.394C158.752 82.6783 160.835 82.6783 162.119 81.394C163.403 80.1097 163.403 78.0274 162.119 76.7431C160.835 75.4588 158.752 75.4588 157.468 76.7431ZM152.063 71.3382C150.823 72.5782 150.823 74.5887 152.063 75.8287C153.303 77.0687 155.314 77.0687 156.554 75.8287C157.794 74.5887 157.794 72.5782 156.554 71.3382C155.314 70.0982 153.303 70.0982 152.063 71.3382ZM146.658 65.9333C145.463 67.129 145.463 69.0677 146.658 70.2634C147.854 71.4592 149.793 71.4592 150.988 70.2634C152.184 69.0677 152.184 67.129 150.988 65.9333C149.793 64.7375 147.854 64.7375 146.658 65.9333ZM141.253 60.5283C140.102 61.6798 140.102 63.5467 141.253 64.6981C142.405 65.8496 144.272 65.8496 145.423 64.6981C146.575 63.5467 146.575 61.6798 145.423 60.5283C144.272 59.3769 142.405 59.3769 141.253 60.5283ZM135.848 55.1234C134.741 56.2306 134.741 58.0256 135.848 59.1328C136.956 60.24 138.751 60.24 139.858 59.1328C140.965 58.0256 140.965 56.2306 139.858 55.1234C138.751 54.0162 136.956 54.0162 135.848 55.1234ZM130.444 49.7185C129.381 50.7814 129.381 52.5046 130.444 53.5675C131.506 54.6304 133.23 54.6304 134.293 53.5675C135.355 52.5046 135.355 50.7814 134.293 49.7185C133.23 48.6556 131.506 48.6556 130.444 49.7185ZM128.727 48.0022C129.746 46.9836 129.746 45.3321 128.727 44.3135C127.709 43.295 126.057 43.295 125.039 44.3135C124.02 45.3321 124.02 46.9836 125.039 48.0022C126.057 49.0208 127.709 49.0208 128.727 48.0022ZM123.162 42.4369C124.136 41.4626 124.136 39.8829 123.162 38.9086C122.188 37.9343 120.608 37.9343 119.634 38.9086C118.659 39.8829 118.659 41.4626 119.634 42.4369C120.608 43.4112 122.188 43.4112 123.162 42.4369ZM117.597 36.8716C118.527 35.9416 118.527 34.4337 117.597 33.5037C116.667 32.5737 115.159 32.5737 114.229 33.5037C113.299 34.4337 113.299 35.9416 114.229 36.8716C115.159 37.8016 116.667 37.8016 117.597 36.8716ZM112.031 31.3063C112.917 30.4205 112.917 28.9845 112.031 28.0988C111.146 27.213 109.71 27.213 108.824 28.0988C107.938 28.9845 107.938 30.4205 108.824 31.3063C109.71 32.192 111.146 32.192 112.031 31.3063ZM106.466 25.741C107.307 24.8995 107.307 23.5353 106.466 22.6938C105.625 21.8524 104.26 21.8524 103.419 22.6938C102.577 23.5353 102.577 24.8995 103.419 25.741C104.26 26.5824 105.625 26.5824 106.466 25.741ZM100.901 20.1757C101.698 19.3785 101.698 18.0861 100.901 17.2889C100.104 16.4917 98.8111 16.4917 98.014 17.2889C97.2168 18.0861 97.2168 19.3785 98.014 20.1757C98.8111 20.9728 100.104 20.9728 100.901 20.1757ZM95.3354 14.6104C96.0883 13.8575 96.0883 12.6368 95.3354 11.884C94.5825 11.1311 93.3619 11.1311 92.609 11.884C91.8562 12.6368 91.8562 13.8575 92.609 14.6104C93.3619 15.3632 94.5825 15.3632 95.3354 14.6104ZM89.7701 9.04506C90.4787 8.33648 90.4787 7.18763 89.7701 6.47905C89.0615 5.77045 87.9127 5.77045 87.2041 6.47905C86.4955 7.18763 86.4955 8.33648 87.2041 9.04506C87.9127 9.75365 89.0615 9.75365 89.7701 9.04506ZM184.581 87.1917C183.164 85.7745 180.866 85.7745 179.449 87.1917C178.032 88.6089 178.032 90.9066 179.449 92.3237C180.866 93.7409 183.164 93.7409 184.581 92.3237C185.998 90.9066 185.998 88.6089 184.581 87.1917ZM174.044 86.7584C175.417 88.1313 177.643 88.1313 179.016 86.7584C180.389 85.3855 180.389 83.1596 179.016 81.7868C177.643 80.4139 175.417 80.4139 174.044 81.7868C172.671 83.1596 172.671 85.3855 174.044 86.7584ZM168.639 81.1931C169.968 82.5217 172.122 82.5217 173.451 81.1931C174.779 79.8645 174.779 77.7104 173.451 76.3818C172.122 75.0532 169.968 75.0532 168.639 76.3818C167.311 77.7104 167.311 79.8645 168.639 81.1931ZM163.234 75.6278C164.519 76.9121 166.601 76.9121 167.885 75.6278C169.17 74.3435 169.17 72.2612 167.885 70.9769C166.601 69.6926 164.519 69.6926 163.234 70.9769C161.95 72.2612 161.95 74.3435 163.234 75.6278ZM157.829 70.0625C159.069 71.3025 161.08 71.3025 162.32 70.0625C163.56 68.8225 163.56 66.812 162.32 65.572C161.08 64.332 159.069 64.332 157.829 65.572C156.589 66.812 156.589 68.8225 157.829 70.0625ZM152.425 64.4972C153.62 65.6929 155.559 65.6929 156.755 64.4972C157.95 63.3015 157.95 61.3628 156.755 60.1671C155.559 58.9713 153.62 58.9713 152.425 60.1671C151.229 61.3628 151.229 63.3015 152.425 64.4972ZM147.02 58.9319C148.171 60.0834 150.038 60.0834 151.189 58.9319C152.341 57.7804 152.341 55.9136 151.189 54.7621C150.038 53.6107 148.171 53.6107 147.02 54.7621C145.868 55.9136 145.868 57.7804 147.02 58.9319ZM141.615 53.3666C142.722 54.4738 144.517 54.4738 145.624 53.3666C146.731 52.2594 146.731 50.4644 145.624 49.3572C144.517 48.25 142.722 48.25 141.615 49.3572C140.508 50.4644 140.508 52.2594 141.615 53.3666ZM140.059 47.8013C141.122 46.7384 141.122 45.0151 140.059 43.9523C138.996 42.8894 137.273 42.8894 136.21 43.9523C135.147 45.0151 135.147 46.7384 136.21 47.8013C137.273 48.8642 138.996 48.8642 140.059 47.8013ZM134.493 42.236C135.512 41.2174 135.512 39.5659 134.493 38.5473C133.475 37.5287 131.823 37.5287 130.805 38.5473C129.786 39.5659 129.786 41.2174 130.805 42.236C131.823 43.2546 133.475 43.2546 134.493 42.236ZM128.928 36.6707C129.902 35.6964 129.902 34.1167 128.928 33.1424C127.954 32.1681 126.374 32.1681 125.4 33.1424C124.426 34.1167 124.426 35.6964 125.4 36.6707C126.374 37.645 127.954 37.645 128.928 36.6707ZM123.363 31.1054C124.293 30.1754 124.293 28.6675 123.363 27.7375C122.433 26.8075 120.925 26.8075 119.995 27.7375C119.065 28.6675 119.065 30.1754 119.995 31.1054C120.925 32.0354 122.433 32.0354 123.363 31.1054ZM117.798 25.5401C118.683 24.6543 118.683 23.2183 117.798 22.3326C116.912 21.4468 115.476 21.4468 114.59 22.3326C113.704 23.2183 113.704 24.6543 114.59 25.5401C115.476 26.4258 116.912 26.4258 117.798 25.5401ZM112.232 19.9748C113.074 19.1333 113.074 17.7691 112.232 16.9276C111.391 16.0862 110.027 16.0862 109.185 16.9276C108.344 17.7691 108.344 19.1333 109.185 19.9748C110.027 20.8162 111.391 20.8162 112.232 19.9748ZM106.667 14.4095C107.464 13.6123 107.464 12.3199 106.667 11.5227C105.87 10.7255 104.577 10.7255 103.78 11.5227C102.983 12.3199 102.983 13.6123 103.78 14.4095C104.577 15.2066 105.87 15.2066 106.667 14.4095ZM101.102 8.84415C101.855 8.09128 101.855 6.87063 101.102 6.11776C100.349 5.36488 99.1281 5.36488 98.3752 6.11776C97.6224 6.87063 97.6224 8.09128 98.3752 8.84415C99.1281 9.59703 100.349 9.59703 101.102 8.84415ZM95.5363 3.27885C96.2449 2.57027 96.2449 1.42142 95.5363 0.712834C94.8277 0.00425059 93.6789 0.00425059 92.9703 0.712834C92.2617 1.42142 92.2617 2.57027 92.9703 3.27885C93.6789 3.98743 94.8277 3.98743 95.5363 3.27885Z"
            fill="white" />
    </g>
</svg>