<svg width="200" height="60" viewBox="0 0 217 60" fill="none" xmlns="http://www.w3.org/2000/svg">
<path d="M29.8091 57.9959C30.2676 58.4543 30.2676 59.1977 29.8091 59.6561C29.3507 60.1146 28.6073 60.1146 28.1489 59.6561C27.6904 59.1977 27.6904 58.4543 28.1489 57.9959C28.6073 57.5374 29.3507 57.5374 29.8091 57.9959ZM28.0087 56.2473C27.5645 55.8032 26.8444 55.8032 26.4003 56.2473C25.9562 56.6915 25.9562 57.4116 26.4003 57.8557C26.8444 58.2999 27.5645 58.2999 28.0087 57.8557C28.4528 57.4116 28.4528 56.6915 28.0087 56.2473ZM26.2082 54.4988C25.7784 54.0689 25.0816 54.0689 24.6517 54.4988C24.2219 54.9286 24.2219 55.6254 24.6517 56.0553C25.0816 56.4851 25.7784 56.4851 26.2082 56.0553C26.6381 55.6254 26.6381 54.9286 26.2082 54.4988ZM24.4078 52.7502C23.9923 52.3347 23.3187 52.3347 22.9032 52.7502C22.4877 53.1657 22.4877 53.8393 22.9032 54.2548C23.3187 54.6703 23.9923 54.6703 24.4078 54.2548C24.8233 53.8393 24.8233 53.1657 24.4078 52.7502ZM22.6074 51.0016C22.2062 50.6005 21.5558 50.6005 21.1546 51.0016C20.7535 51.4028 20.7535 52.0532 21.1546 52.4544C21.5558 52.8555 22.2062 52.8555 22.6074 52.4544C23.0085 52.0532 23.0085 51.4028 22.6074 51.0016ZM20.8069 49.2531C20.4201 48.8662 19.7929 48.8662 19.4061 49.2531C19.0192 49.6399 19.0192 50.2671 19.4061 50.6539C19.7929 51.0408 20.4201 51.0408 20.8069 50.6539C21.1938 50.2671 21.1938 49.6399 20.8069 49.2531ZM19.0065 47.5045C18.634 47.132 18.03 47.132 17.6575 47.5045C17.285 47.877 17.285 48.481 17.6575 48.8535C18.03 49.226 18.634 49.226 19.0065 48.8535C19.379 48.481 19.379 47.877 19.0065 47.5045ZM17.206 45.756C16.8479 45.3978 16.2671 45.3978 15.9089 45.756C15.5508 46.1141 15.5508 46.6949 15.9089 47.0531C16.2671 47.4112 16.8479 47.4112 17.206 47.0531C17.5642 46.6949 17.5642 46.1141 17.206 45.756ZM15.4056 44.0074C15.0617 43.6636 14.5042 43.6636 14.1604 44.0074C13.8165 44.3513 13.8165 44.9088 14.1604 45.2526C14.5042 45.5965 15.0617 45.5965 15.4056 45.2526C15.7495 44.9088 15.7495 44.3513 15.4056 44.0074ZM12.4118 42.2588C12.0823 42.5884 12.0823 43.1226 12.4118 43.4522C12.7414 43.7817 13.2756 43.7817 13.6052 43.4522C13.9347 43.1226 13.9347 42.5884 13.6052 42.2588C13.2756 41.9293 12.7414 41.9293 12.4118 42.2588ZM10.6633 40.5103C10.3481 40.8255 10.3481 41.3365 10.6633 41.6517C10.9785 41.9669 11.4895 41.9669 11.8047 41.6517C12.1199 41.3365 12.1199 40.8255 11.8047 40.5103C11.4895 40.1951 10.9785 40.1951 10.6633 40.5103ZM8.91472 38.7617C8.61385 39.0626 8.61385 39.5504 8.91472 39.8513C9.21559 40.1522 9.7034 40.1522 10.0043 39.8513C10.3051 39.5504 10.3051 39.0626 10.0043 38.7617C9.7034 38.4609 9.21559 38.4609 8.91472 38.7617ZM7.16616 37.0132C6.87961 37.2997 6.87961 37.7643 7.16616 38.0508C7.4527 38.3374 7.91728 38.3374 8.20383 38.0508C8.49038 37.7643 8.49038 37.2997 8.20383 37.0132C7.91728 36.7266 7.4527 36.7266 7.16616 37.0132ZM5.4176 35.2646C5.14538 35.5368 5.14538 35.9782 5.4176 36.2504C5.68982 36.5226 6.13117 36.5226 6.40339 36.2504C6.67561 35.9782 6.67561 35.5368 6.40339 35.2646C6.13117 34.9924 5.68982 34.9924 5.4176 35.2646ZM3.66904 33.5161C3.41115 33.7739 3.41115 34.1921 3.66904 34.45C3.92693 34.7079 4.34506 34.7079 4.60295 34.45C4.86083 34.1921 4.86083 33.7739 4.60295 33.5161C4.34506 33.2582 3.92693 33.2582 3.66904 33.5161ZM1.92048 31.7675C1.67692 32.0111 1.67692 32.406 1.92048 32.6495C2.16405 32.8931 2.55894 32.8931 2.8025 32.6495C3.04607 32.406 3.04607 32.0111 2.8025 31.7675C2.55894 31.5239 2.16405 31.5239 1.92048 31.7675ZM0.171926 30.0189C-0.0573088 30.2482 -0.0573088 30.6198 0.171926 30.8491C0.401161 31.0783 0.772827 31.0783 1.00206 30.8491C1.2313 30.6198 1.2313 30.2482 1.00206 30.0189C0.772827 29.7897 0.401161 29.7897 0.171926 30.0189ZM30.0143 56.1304C29.5558 56.5889 29.5558 57.3322 30.0143 57.7907C30.4728 58.2492 31.2161 58.2492 31.6746 57.7907C32.133 57.3322 32.133 56.5889 31.6746 56.1304C31.2161 55.672 30.4728 55.672 30.0143 56.1304ZM29.8741 55.9903C30.3183 55.5461 30.3183 54.826 29.8741 54.3819C29.43 53.9377 28.7099 53.9377 28.2657 54.3819C27.8216 54.826 27.8216 55.5461 28.2657 55.9903C28.7099 56.4344 29.43 56.4344 29.8741 55.9903ZM28.0737 54.1898C28.5035 53.76 28.5035 53.0631 28.0737 52.6333C27.6439 52.2035 26.947 52.2035 26.5172 52.6333C26.0874 53.0631 26.0874 53.76 26.5172 54.1898C26.947 54.6196 27.6439 54.6196 28.0737 54.1898ZM26.2732 52.3894C26.6887 51.9739 26.6887 51.3002 26.2732 50.8848C25.8578 50.4693 25.1841 50.4693 24.7686 50.8848C24.3531 51.3002 24.3531 51.9739 24.7686 52.3894C25.1841 52.8049 25.8578 52.8049 26.2732 52.3894ZM24.4728 50.5889C24.874 50.1878 24.874 49.5374 24.4728 49.1362C24.0716 48.735 23.4212 48.735 23.0201 49.1362C22.6189 49.5374 22.6189 50.1878 23.0201 50.5889C23.4212 50.9901 24.0716 50.9901 24.4728 50.5889ZM22.6724 48.7885C23.0592 48.4017 23.0592 47.7745 22.6724 47.3876C22.2855 47.0008 21.6583 47.0008 21.2715 47.3876C20.8847 47.7745 20.8847 48.4017 21.2715 48.7885C21.6583 49.1753 22.2855 49.1753 22.6724 48.7885ZM20.8719 46.9881C21.2444 46.6155 21.2444 46.0116 20.8719 45.6391C20.4994 45.2666 19.8955 45.2666 19.5229 45.6391C19.1504 46.0116 19.1504 46.6155 19.5229 46.9881C19.8955 47.3606 20.4994 47.3606 20.8719 46.9881ZM19.0715 45.1876C19.4297 44.8294 19.4297 44.2487 19.0715 43.8905C18.7133 43.5323 18.1326 43.5323 17.7744 43.8905C17.4162 44.2487 17.4162 44.8294 17.7744 45.1876C18.1326 45.5458 18.7133 45.5458 19.0715 45.1876ZM17.271 43.3872C17.6149 43.0433 17.6149 42.4858 17.271 42.142C16.9272 41.7981 16.3697 41.7981 16.0258 42.142C15.682 42.4858 15.682 43.0433 16.0258 43.3872C16.3697 43.731 16.9272 43.731 17.271 43.3872ZM14.2773 40.3934C13.9477 40.7229 13.9477 41.2572 14.2773 41.5867C14.6068 41.9163 15.1411 41.9163 15.4706 41.5867C15.8001 41.2572 15.8001 40.7229 15.4706 40.3934C15.1411 40.0639 14.6068 40.0639 14.2773 40.3934ZM12.5287 38.6449C12.2135 38.9601 12.2135 39.4711 12.5287 39.7863C12.8439 40.1015 13.355 40.1015 13.6702 39.7863C13.9854 39.4711 13.9854 38.9601 13.6702 38.6449C13.355 38.3297 12.8439 38.3297 12.5287 38.6449ZM10.7802 36.8963C10.4793 37.1972 10.4793 37.685 10.7802 37.9858C11.081 38.2867 11.5688 38.2867 11.8697 37.9858C12.1706 37.685 12.1706 37.1972 11.8697 36.8963C11.5688 36.5954 11.081 36.5954 10.7802 36.8963ZM9.0316 35.1477C8.74505 35.4343 8.74505 35.8989 9.0316 36.1854C9.31814 36.472 9.78272 36.472 10.0693 36.1854C10.3558 35.8989 10.3558 35.4343 10.0693 35.1477C9.78272 34.8612 9.31814 34.8612 9.0316 35.1477ZM7.28304 33.3992C7.01082 33.6714 7.01082 34.1127 7.28304 34.385C7.55526 34.6572 7.99661 34.6572 8.26883 34.385C8.54104 34.1127 8.54104 33.6714 8.26883 33.3992C7.99661 33.127 7.55526 33.127 7.28304 33.3992ZM5.53448 31.6506C5.27659 31.9085 5.27659 32.3266 5.53448 32.5845C5.79237 32.8424 6.21049 32.8424 6.46839 32.5845C6.72627 32.3266 6.72627 31.9085 6.46839 31.6506C6.21049 31.3927 5.79237 31.3927 5.53448 31.6506ZM3.78592 29.9021C3.54236 30.1456 3.54236 30.5405 3.78592 30.7841C4.02949 31.0276 4.42438 31.0276 4.66794 30.7841C4.91151 30.5405 4.91151 30.1456 4.66794 29.9021C4.42438 29.6585 4.02949 29.6585 3.78592 29.9021ZM2.03737 28.1535C1.80813 28.3827 1.80813 28.7544 2.03737 28.9836C2.2666 29.2129 2.63827 29.2129 2.8675 28.9836C3.09674 28.7544 3.09674 28.3827 2.8675 28.1535C2.63827 27.9243 2.2666 27.9243 2.03737 28.1535ZM31.8797 54.265C31.4213 54.7235 31.4213 55.4668 31.8797 55.9253C32.3382 56.3837 33.0815 56.3837 33.54 55.9253C33.9985 55.4668 33.9985 54.7235 33.54 54.265C33.0815 53.8065 32.3382 53.8065 31.8797 54.265ZM31.7396 54.1248C32.1837 53.6807 32.1837 52.9606 31.7396 52.5164C31.2954 52.0723 30.5753 52.0723 30.1312 52.5164C29.687 52.9606 29.687 53.6807 30.1312 54.1248C30.5753 54.569 31.2954 54.569 31.7396 54.1248ZM29.9391 52.3244C30.3689 51.8946 30.3689 51.1977 29.9391 50.7679C29.5093 50.3381 28.8124 50.3381 28.3826 50.7679C27.9528 51.1977 27.9528 51.8946 28.3826 52.3244C28.8124 52.7542 29.5093 52.7542 29.9391 52.3244ZM28.1387 50.5239C28.5542 50.1085 28.5542 49.4348 28.1387 49.0193C27.7232 48.6038 27.0495 48.6038 26.6341 49.0193C26.2186 49.4348 26.2186 50.1085 26.6341 50.5239C27.0495 50.9394 27.7232 50.9394 28.1387 50.5239ZM26.3382 48.7235C26.7394 48.3223 26.7394 47.6719 26.3382 47.2708C25.9371 46.8696 25.2867 46.8696 24.8855 47.2708C24.4843 47.6719 24.4843 48.3223 24.8855 48.7235C25.2867 49.1247 25.9371 49.1247 26.3382 48.7235ZM24.5378 46.9231C24.9246 46.5362 24.9246 45.909 24.5378 45.5222C24.151 45.1354 23.5238 45.1354 23.1369 45.5222C22.7501 45.909 22.7501 46.5362 23.1369 46.9231C23.5238 47.3099 24.151 47.3099 24.5378 46.9231ZM22.7374 45.1226C23.1099 44.7501 23.1099 44.1462 22.7374 43.7736C22.3648 43.4011 21.7609 43.4011 21.3884 43.7736C21.0159 44.1462 21.0159 44.7501 21.3884 45.1226C21.7609 45.4951 22.3648 45.4951 22.7374 45.1226ZM19.6398 42.0251C19.2816 42.3833 19.2816 42.964 19.6398 43.3222C19.998 43.6804 20.5787 43.6804 20.9369 43.3222C21.2951 42.964 21.2951 42.3833 20.9369 42.0251C20.5787 41.6669 19.998 41.6669 19.6398 42.0251ZM17.8913 41.5217C18.2351 41.8656 18.7926 41.8656 19.1365 41.5217C19.4803 41.1779 19.4803 40.6204 19.1365 40.2765C18.7926 39.9327 18.2351 39.9327 17.8913 40.2765C17.5474 40.6204 17.5474 41.1779 17.8913 41.5217ZM16.1427 39.7213C16.4722 40.0508 17.0065 40.0508 17.336 39.7213C17.6656 39.3918 17.6656 38.8575 17.336 38.528C17.0065 38.1984 16.4722 38.1984 16.1427 38.528C15.8132 38.8575 15.8132 39.3918 16.1427 39.7213ZM15.5356 36.7794C15.2204 36.4642 14.7093 36.4642 14.3942 36.7794C14.079 37.0946 14.079 37.6056 14.3942 37.9208C14.7093 38.236 15.2204 38.236 15.5356 37.9208C15.8508 37.6056 15.8508 37.0946 15.5356 36.7794ZM13.7351 36.1204C14.036 35.8195 14.036 35.3317 13.7351 35.0309C13.4343 34.73 12.9465 34.73 12.6456 35.0309C12.3447 35.3317 12.3447 35.8195 12.6456 36.1204C12.9465 36.4213 13.4343 36.4213 13.7351 36.1204ZM10.897 33.2823C10.6105 33.5688 10.6105 34.0334 10.897 34.32C11.1836 34.6065 11.6482 34.6065 11.9347 34.32C12.2213 34.0334 12.2213 33.5688 11.9347 33.2823C11.6482 32.9958 11.1836 32.9958 10.897 33.2823ZM9.14848 31.5337C8.87626 31.806 8.87626 32.2473 9.14848 32.5195C9.42069 32.7917 9.86205 32.7917 10.1343 32.5195C10.4065 32.2473 10.4065 31.806 10.1343 31.5337C9.86205 31.2615 9.42069 31.2615 9.14848 31.5337ZM7.39992 29.7852C7.14203 30.0431 7.14203 30.4612 7.39992 30.7191C7.65781 30.977 8.07593 30.977 8.33382 30.7191C8.59171 30.4612 8.59171 30.0431 8.33382 29.7852C8.07593 29.5273 7.65781 29.5273 7.39992 29.7852ZM5.65136 28.0366C5.4078 28.2802 5.4078 28.6751 5.65136 28.9186C5.89493 29.1622 6.28982 29.1622 6.53338 28.9186C6.77695 28.6751 6.77695 28.2802 6.53338 28.0366C6.28982 27.7931 5.89493 27.7931 5.65136 28.0366ZM3.9028 26.2881C3.67356 26.5173 3.67356 26.889 3.9028 27.1182C4.13204 27.3474 4.5037 27.3474 4.73294 27.1182C4.96217 26.889 4.96217 26.5173 4.73294 26.2881C4.5037 26.0588 4.13204 26.0588 3.9028 26.2881ZM33.7452 52.3996C33.2867 52.858 33.2867 53.6014 33.7452 54.0598C34.2036 54.5183 34.947 54.5183 35.4054 54.0598C35.8639 53.6014 35.8639 52.858 35.4054 52.3996C34.947 51.9411 34.2036 51.9411 33.7452 52.3996ZM33.605 52.2594C34.0491 51.8152 34.0491 51.0951 33.605 50.651C33.1609 50.2069 32.4408 50.2069 31.9966 50.651C31.5525 51.0951 31.5525 51.8152 31.9966 52.2594C32.4408 52.7035 33.1609 52.7035 33.605 52.2594ZM31.8046 50.4589C32.2344 50.0291 32.2344 49.3323 31.8046 48.9024C31.3747 48.4726 30.6779 48.4726 30.2481 48.9024C29.8182 49.3323 29.8182 50.0291 30.2481 50.4589C30.6779 50.8888 31.3747 50.8888 31.8046 50.4589ZM30.0041 48.6585C30.4196 48.243 30.4196 47.5694 30.0041 47.1539C29.5886 46.7384 28.915 46.7384 28.4995 47.1539C28.084 47.5694 28.084 48.243 28.4995 48.6585C28.915 49.074 29.5886 49.074 30.0041 48.6585ZM28.2037 46.8581C28.6048 46.4569 28.6048 45.8065 28.2037 45.4053C27.8025 45.0042 27.1521 45.0042 26.7509 45.4053C26.3498 45.8065 26.3498 46.4569 26.7509 46.8581C27.1521 47.2592 27.8025 47.2592 28.2037 46.8581ZM25.0024 43.6568C24.6155 44.0436 24.6155 44.6708 25.0024 45.0576C25.3892 45.4445 26.0164 45.4445 26.4032 45.0576C26.7901 44.6708 26.7901 44.0436 26.4032 43.6568C26.0164 43.2699 25.3892 43.2699 25.0024 43.6568ZM23.2538 43.2572C23.6263 43.6297 24.2303 43.6297 24.6028 43.2572C24.9753 42.8847 24.9753 42.2807 24.6028 41.9082C24.2303 41.5357 23.6263 41.5357 23.2538 41.9082C22.8813 42.2807 22.8813 42.8847 23.2538 43.2572ZM21.5053 40.1596C21.1471 40.5178 21.1471 41.0986 21.5053 41.4567C21.8634 41.8149 22.4442 41.8149 22.8024 41.4567C23.1605 41.0986 23.1605 40.5178 22.8024 40.1596C22.4442 39.8015 21.8634 39.8015 21.5053 40.1596ZM19.7567 39.6563C20.1006 40.0001 20.6581 40.0001 21.0019 39.6563C21.3458 39.3124 21.3458 38.7549 21.0019 38.4111C20.6581 38.0672 20.1006 38.0672 19.7567 38.4111C19.4129 38.7549 19.4129 39.3124 19.7567 39.6563ZM18.0081 37.8559C18.3377 38.1854 18.8719 38.1854 19.2015 37.8559C19.531 37.5263 19.531 36.9921 19.2015 36.6625C18.8719 36.333 18.3377 36.333 18.0081 36.6625C17.6786 36.9921 17.6786 37.5263 18.0081 37.8559ZM16.2596 34.914C15.9444 35.2292 15.9444 35.7402 16.2596 36.0554C16.5748 36.3706 17.0858 36.3706 17.401 36.0554C17.7162 35.7402 17.7162 35.2292 17.401 34.914C17.0858 34.5988 16.5748 34.5988 16.2596 34.914ZM15.6006 34.255C15.9015 33.9541 15.9015 33.4663 15.6006 33.1654C15.2997 32.8645 14.8119 32.8645 14.511 33.1654C14.2102 33.4663 14.2102 33.9541 14.511 34.255C14.8119 34.5558 15.2997 34.5558 15.6006 34.255ZM13.8001 32.4545C14.0867 32.168 14.0867 31.7034 13.8001 31.4169C13.5136 31.1303 13.049 31.1303 12.7625 31.4169C12.4759 31.7034 12.4759 32.168 12.7625 32.4545C13.049 32.7411 13.5136 32.7411 13.8001 32.4545ZM11.9997 30.6541C12.2719 30.3819 12.2719 29.9405 11.9997 29.6683C11.7275 29.3961 11.2861 29.3961 11.0139 29.6683C10.7417 29.9405 10.7417 30.3819 11.0139 30.6541C11.2861 30.9263 11.7275 30.9263 11.9997 30.6541ZM9.26536 27.9197C9.00747 28.1776 9.00747 28.5958 9.26536 28.8536C9.52325 29.1115 9.94137 29.1115 10.1993 28.8536C10.4572 28.5958 10.4572 28.1776 10.1993 27.9197C9.94137 27.6618 9.52325 27.6618 9.26536 27.9197ZM7.5168 26.1712C7.27324 26.4147 7.27324 26.8096 7.5168 27.0532C7.76036 27.2968 8.15526 27.2968 8.39882 27.0532C8.64238 26.8096 8.64238 26.4147 8.39882 26.1712C8.15526 25.9276 7.76036 25.9276 7.5168 26.1712ZM5.76824 24.4226C5.539 24.6519 5.539 25.0235 5.76824 25.2528C5.99748 25.482 6.36914 25.482 6.59838 25.2528C6.82761 25.0235 6.82761 24.6519 6.59838 24.4226C6.36914 24.1934 5.99748 24.1934 5.76824 24.4226ZM35.6106 50.5341C35.1521 50.9926 35.1521 51.7359 35.6106 52.1944C36.0691 52.6529 36.8124 52.6529 37.2709 52.1944C37.7294 51.7359 37.7294 50.9926 37.2709 50.5341C36.8124 50.0756 36.0691 50.0756 35.6106 50.5341ZM35.4704 50.3939C35.9146 49.9498 35.9146 49.2297 35.4704 48.7856C35.0263 48.3414 34.3062 48.3414 33.8621 48.7856C33.4179 49.2297 33.4179 49.9498 33.8621 50.3939C34.3062 50.8381 35.0263 50.8381 35.4704 50.3939ZM33.67 48.5935C34.0998 48.1637 34.0998 47.4668 33.67 47.037C33.2402 46.6072 32.5433 46.6072 32.1135 47.037C31.6837 47.4668 31.6837 48.1637 32.1135 48.5935C32.5433 49.0233 33.2402 49.0233 33.67 48.5935ZM31.8696 46.7931C32.285 46.3776 32.285 45.7039 31.8696 45.2884C31.4541 44.873 30.7804 44.873 30.3649 45.2884C29.9494 45.7039 29.9494 46.3776 30.3649 46.7931C30.7804 47.2086 31.4541 47.2086 31.8696 46.7931ZM28.6164 43.5399C28.2152 43.941 28.2152 44.5915 28.6164 44.9926C29.0175 45.3938 29.668 45.3938 30.0691 44.9926C30.4703 44.5915 30.4703 43.941 30.0691 43.5399C29.668 43.1387 29.0175 43.1387 28.6164 43.5399ZM26.8678 41.7913C26.481 42.1782 26.481 42.8053 26.8678 43.1922C27.2547 43.579 27.8818 43.579 28.2687 43.1922C28.6555 42.8053 28.6555 42.1782 28.2687 41.7913C27.8818 41.4045 27.2547 41.4045 26.8678 41.7913ZM25.1193 41.3917C25.4918 41.7642 26.0957 41.7642 26.4682 41.3917C26.8407 41.0192 26.8407 40.4153 26.4682 40.0428C26.0957 39.6703 25.4918 39.6703 25.1193 40.0428C24.7468 40.4153 24.7468 41.0192 25.1193 41.3917ZM23.3707 38.2942C23.0125 38.6524 23.0125 39.2331 23.3707 39.5913C23.7289 39.9495 24.3096 39.9495 24.6678 39.5913C25.026 39.2331 25.026 38.6524 24.6678 38.2942C24.3096 37.936 23.7289 37.936 23.3707 38.2942ZM21.6221 37.7909C21.966 38.1347 22.5235 38.1347 22.8673 37.7909C23.2112 37.447 23.2112 36.8895 22.8673 36.5457C22.5235 36.2018 21.966 36.2018 21.6221 36.5457C21.2783 36.8895 21.2783 37.447 21.6221 37.7909ZM19.8736 35.9904C20.2031 36.3199 20.7374 36.3199 21.0669 35.9904C21.3964 35.6609 21.3964 35.1266 21.0669 34.7971C20.7374 34.4676 20.2031 34.4676 19.8736 34.7971C19.5441 35.1266 19.5441 35.6609 19.8736 35.9904ZM18.125 33.0485C17.8098 33.3637 17.8098 33.8748 18.125 34.19C18.4402 34.5052 18.9513 34.5052 19.2665 34.19C19.5817 33.8748 19.5817 33.3637 19.2665 33.0485C18.9513 32.7333 18.4402 32.7333 18.125 33.0485ZM17.466 32.3895C17.7669 32.0887 17.7669 31.6008 17.466 31.3C17.1652 30.9991 16.6773 30.9991 16.3765 31.3C16.0756 31.6008 16.0756 32.0887 16.3765 32.3895C16.6773 32.6904 17.1651 32.6904 17.466 32.3895ZM15.6656 30.5891C15.9521 30.3025 15.9521 29.838 15.6656 29.5514C15.379 29.2649 14.9145 29.2649 14.6279 29.5514C14.3414 29.838 14.3414 30.3025 14.6279 30.5891C14.9145 30.8756 15.379 30.8756 15.6656 30.5891ZM13.8651 28.7886C14.1374 28.5164 14.1374 28.0751 13.8651 27.8029C13.5929 27.5306 13.1516 27.5306 12.8794 27.8029C12.6071 28.0751 12.6071 28.5164 12.8794 28.7886C13.1516 29.0609 13.5929 29.0609 13.8651 28.7886ZM12.0647 26.9882C12.3226 26.7303 12.3226 26.3122 12.0647 26.0543C11.8068 25.7964 11.3887 25.7964 11.1308 26.0543C10.8729 26.3122 10.8729 26.7303 11.1308 26.9882C11.3887 27.2461 11.8068 27.2461 12.0647 26.9882ZM10.2643 25.1878C10.5078 24.9442 10.5078 24.5493 10.2643 24.3057C10.0207 24.0622 9.6258 24.0622 9.38224 24.3057C9.13867 24.5493 9.13867 24.9442 9.38224 25.1878C9.6258 25.4313 10.0207 25.4313 10.2643 25.1878ZM7.63368 22.5572C7.40444 22.7864 7.40444 23.1581 7.63368 23.3873C7.86292 23.6166 8.23458 23.6166 8.46381 23.3873C8.69305 23.1581 8.69305 22.7864 8.46381 22.5572C8.23458 22.3279 7.86292 22.3279 7.63368 22.5572ZM37.4761 48.6687C37.0176 49.1272 37.0176 49.8705 37.4761 50.329C37.9345 50.7874 38.6779 50.7874 39.1363 50.329C39.5948 49.8705 39.5948 49.1272 39.1363 48.6687C38.6779 48.2102 37.9345 48.2102 37.4761 48.6687ZM37.3359 48.5285C37.78 48.0844 37.78 47.3643 37.3359 46.9201C36.8917 46.476 36.1716 46.476 35.7275 46.9201C35.2833 47.3643 35.2833 48.0844 35.7275 48.5285C36.1716 48.9727 36.8917 48.9727 37.3359 48.5285ZM35.5354 46.7281C35.9653 46.2983 35.9653 45.6014 35.5354 45.1716C35.1056 44.7417 34.4088 44.7417 33.9789 45.1716C33.5491 45.6014 33.5491 46.2983 33.9789 46.7281C34.4088 47.1579 35.1056 47.1579 35.5354 46.7281ZM33.735 44.9276C34.1505 44.5121 34.1505 43.8385 33.735 43.423C33.3195 43.0075 32.6459 43.0075 32.2304 43.423C31.8149 43.8385 31.8149 44.5121 32.2304 44.9276C32.6459 45.3431 33.3195 45.3431 33.735 44.9276ZM31.9346 43.1272C32.3357 42.726 32.3357 42.0756 31.9346 41.6744C31.5334 41.2733 30.883 41.2733 30.4818 41.6744C30.0807 42.0756 30.0807 42.726 30.4818 43.1272C30.883 43.5284 31.5334 43.5284 31.9346 43.1272ZM28.7333 39.9259C28.3464 40.3127 28.3464 40.9399 28.7333 41.3267C29.1201 41.7136 29.7473 41.7136 30.1341 41.3267C30.521 40.9399 30.521 40.3127 30.1341 39.9259C29.7473 39.5391 29.1201 39.5391 28.7333 39.9259ZM26.9847 39.5263C27.3572 39.8988 27.9612 39.8988 28.3337 39.5263C28.7062 39.1538 28.7062 38.5498 28.3337 38.1773C27.9612 37.8048 27.3572 37.8048 26.9847 38.1773C26.6122 38.5498 26.6122 39.1538 26.9847 39.5263ZM25.2361 36.4288C24.878 36.787 24.878 37.3677 25.2361 37.7259C25.5943 38.084 26.175 38.084 26.5332 37.7259C26.8914 37.3677 26.8914 36.787 26.5332 36.4288C26.175 36.0706 25.5943 36.0706 25.2361 36.4288ZM23.4876 35.9254C23.8314 36.2693 24.3889 36.2693 24.7328 35.9254C25.0766 35.5816 25.0766 35.0241 24.7328 34.6802C24.3889 34.3364 23.8314 34.3364 23.4876 34.6802C23.1437 35.0241 23.1437 35.5816 23.4876 35.9254ZM21.739 34.125C22.0686 34.4545 22.6028 34.4545 22.9323 34.125C23.2619 33.7954 23.2619 33.2612 22.9323 32.9317C22.6028 32.6021 22.0686 32.6021 21.739 32.9317C21.4095 33.2612 21.4095 33.7954 21.739 34.125ZM19.9905 31.1831C19.6753 31.4983 19.6753 32.0093 19.9905 32.3245C20.3057 32.6397 20.8167 32.6397 21.1319 32.3245C21.4471 32.0093 21.4471 31.4983 21.1319 31.1831C20.8167 30.8679 20.3057 30.8679 19.9905 31.1831ZM19.3315 30.5241C19.6323 30.2232 19.6323 29.7354 19.3315 29.4345C19.0306 29.1337 18.5428 29.1337 18.2419 29.4345C17.941 29.7354 17.941 30.2232 18.2419 30.5241C18.5428 30.825 19.0306 30.825 19.3315 30.5241ZM17.531 28.7237C17.8176 28.4371 17.8176 27.9725 17.531 27.686C17.2445 27.3994 16.7799 27.3994 16.4933 27.686C16.2068 27.9725 16.2068 28.4371 16.4933 28.7237C16.7799 29.0102 17.2445 29.0102 17.531 28.7237ZM15.7306 26.9232C16.0028 26.651 16.0028 26.2096 15.7306 25.9374C15.4584 25.6652 15.017 25.6652 14.7448 25.9374C14.4726 26.2096 14.4726 26.651 14.7448 26.9232C15.017 27.1954 15.4584 27.1954 15.7306 26.9232ZM13.9301 25.1228C14.188 24.8649 14.188 24.4468 13.9301 24.1889C13.6722 23.931 13.2541 23.931 12.9962 24.1889C12.7383 24.4468 12.7383 24.8649 12.9962 25.1228C13.2541 25.3807 13.6722 25.3807 13.9301 25.1228ZM12.1297 23.3223C12.3733 23.0788 12.3733 22.6839 12.1297 22.4403C11.8861 22.1967 11.4912 22.1967 11.2477 22.4403C11.0041 22.6839 11.0041 23.0788 11.2477 23.3223C11.4912 23.5659 11.8861 23.5659 12.1297 23.3223ZM10.3293 21.5219C10.5585 21.2926 10.5585 20.921 10.3293 20.6917C10.1 20.4625 9.72835 20.4625 9.49912 20.6917C9.26988 20.921 9.26988 21.2926 9.49912 21.5219C9.72835 21.7511 10.1 21.7511 10.3293 21.5219ZM39.3415 46.8032C38.883 47.2617 38.883 48.005 39.3415 48.4635C39.8 48.922 40.5433 48.922 41.0018 48.4635C41.4602 48.005 41.4602 47.2617 41.0018 46.8032C40.5433 46.3448 39.8 46.3448 39.3415 46.8032ZM39.2013 46.6631C39.6455 46.2189 39.6455 45.4988 39.2013 45.0547C38.7572 44.6105 38.0371 44.6105 37.5929 45.0547C37.1488 45.4988 37.1488 46.2189 37.5929 46.6631C38.0371 47.1072 38.7572 47.1072 39.2013 46.6631ZM37.4009 44.8626C37.8307 44.4328 37.8307 43.7359 37.4009 43.3061C36.9711 42.8763 36.2742 42.8763 35.8444 43.3061C35.4146 43.7359 35.4146 44.4328 35.8444 44.8626C36.2742 45.2924 36.9711 45.2924 37.4009 44.8626ZM35.6004 43.0622C36.0159 42.6467 36.0159 41.9731 35.6004 41.5576C35.1849 41.1421 34.5113 41.1421 34.0958 41.5576C33.6803 41.9731 33.6803 42.6467 34.0958 43.0622C34.5113 43.4777 35.1849 43.4777 35.6004 43.0622ZM33.8 41.2617C34.2012 40.8606 34.2012 40.2102 33.8 39.809C33.3988 39.4078 32.7484 39.4078 32.3473 39.809C31.9461 40.2102 31.9461 40.8606 32.3473 41.2617C32.7484 41.6629 33.3988 41.6629 33.8 41.2617ZM30.5987 38.0604C30.2119 38.4473 30.2119 39.0745 30.5987 39.4613C30.9855 39.8481 31.6127 39.8481 31.9996 39.4613C32.3864 39.0745 32.3864 38.4473 31.9996 38.0604C31.6127 37.6736 30.9855 37.6736 30.5987 38.0604ZM28.8501 37.6609C29.2226 38.0334 29.8266 38.0334 30.1991 37.6609C30.5716 37.2884 30.5716 36.6844 30.1991 36.3119C29.8266 35.9394 29.2226 35.9394 28.8501 36.3119C28.4776 36.6844 28.4776 37.2884 28.8501 37.6609ZM27.1016 34.5633C26.7434 34.9215 26.7434 35.5022 27.1016 35.8604C27.4598 36.2186 28.0405 36.2186 28.3987 35.8604C28.7568 35.5022 28.7568 34.9215 28.3987 34.5633C28.0405 34.2052 27.4598 34.2052 27.1016 34.5633ZM25.353 34.06C25.6969 34.4038 26.2544 34.4038 26.5982 34.06C26.9421 33.7161 26.9421 33.1586 26.5982 32.8148C26.2544 32.4709 25.6969 32.4709 25.353 32.8148C25.0092 33.1586 25.0092 33.7161 25.353 34.06ZM23.6045 32.2595C23.934 32.5891 24.4683 32.5891 24.7978 32.2595C25.1273 31.93 25.1273 31.3957 24.7978 31.0662C24.4683 30.7367 23.934 30.7367 23.6045 31.0662C23.2749 31.3957 23.2749 31.93 23.6045 32.2595ZM21.8559 29.3177C21.5407 29.6329 21.5407 30.1439 21.8559 30.4591C22.1711 30.7743 22.6821 30.7743 22.9973 30.4591C23.3125 30.1439 23.3125 29.6329 22.9973 29.3177C22.6821 29.0025 22.1711 29.0025 21.8559 29.3177ZM21.1969 28.6587C21.4978 28.3578 21.4978 27.87 21.1969 27.5691C20.896 27.2682 20.4082 27.2682 20.1073 27.5691C19.8065 27.87 19.8065 28.3578 20.1073 28.6587C20.4082 28.9595 20.896 28.9595 21.1969 28.6587ZM19.3965 26.8582C19.683 26.5717 19.683 26.1071 19.3965 25.8205C19.1099 25.534 18.6453 25.534 18.3588 25.8205C18.0722 26.1071 18.0722 26.5717 18.3588 26.8582C18.6453 27.1448 19.1099 27.1448 19.3965 26.8582ZM17.596 25.0578C17.8682 24.7856 17.8682 24.3442 17.596 24.072C17.3238 23.7998 16.8824 23.7998 16.6102 24.072C16.338 24.3442 16.338 24.7856 16.6102 25.0578C16.8824 25.33 17.3238 25.33 17.596 25.0578ZM15.7956 23.2573C16.0535 22.9994 16.0535 22.5813 15.7956 22.3234C15.5377 22.0655 15.1196 22.0655 14.8617 22.3234C14.6038 22.5813 14.6038 22.9994 14.8617 23.2573C15.1196 23.5152 15.5377 23.5152 15.7956 23.2573ZM13.9951 21.4569C14.2387 21.2133 14.2387 20.8184 13.9951 20.5749C13.7516 20.3313 13.3567 20.3313 13.1131 20.5749C12.8695 20.8184 12.8695 21.2133 13.1131 21.4569C13.3567 21.7004 13.7516 21.7004 13.9951 21.4569ZM12.1947 19.6564C12.4239 19.4272 12.4239 19.0555 12.1947 18.8263C11.9655 18.5971 11.5938 18.5971 11.3646 18.8263C11.1353 19.0555 11.1353 19.4272 11.3646 19.6564C11.5938 19.8857 11.9655 19.8857 12.1947 19.6564ZM41.2069 44.9378C40.7485 45.3963 40.7485 46.1396 41.2069 46.5981C41.6654 47.0565 42.4087 47.0565 42.8672 46.5981C43.3257 46.1396 43.3257 45.3963 42.8672 44.9378C42.4087 44.4793 41.6654 44.4793 41.2069 44.9378ZM41.0668 44.7976C41.5109 44.3535 41.5109 43.6334 41.0668 43.1892C40.6226 42.7451 39.9025 42.7451 39.4584 43.1892C39.0142 43.6334 39.0142 44.3535 39.4584 44.7976C39.9025 45.2418 40.6226 45.2418 41.0668 44.7976ZM39.2663 42.9972C39.6961 42.5674 39.6961 41.8705 39.2663 41.4407C38.8365 41.0109 38.1396 41.0109 37.7098 41.4407C37.28 41.8705 37.28 42.5674 37.7098 42.9972C38.1396 43.427 38.8365 43.427 39.2663 42.9972ZM37.4659 41.1968C37.8814 40.7813 37.8814 40.1076 37.4659 39.6921C37.0504 39.2766 36.3767 39.2766 35.9613 39.6921C35.5458 40.1076 35.5458 40.7813 35.9613 41.1968C36.3767 41.6122 37.0504 41.6122 37.4659 41.1968ZM35.6654 39.3963C36.0666 38.9951 36.0666 38.3447 35.6654 37.9436C35.2643 37.5424 34.6139 37.5424 34.2127 37.9436C33.8115 38.3447 33.8115 38.9951 34.2127 39.3963C34.6139 39.7975 35.2643 39.7975 35.6654 39.3963ZM32.4641 36.195C32.0773 36.5818 32.0773 37.209 32.4641 37.5959C32.851 37.9827 33.4782 37.9827 33.865 37.5959C34.2518 37.209 34.2518 36.5818 33.865 36.195C33.4782 35.8082 32.851 35.8082 32.4641 36.195ZM30.7156 35.7954C31.0881 36.1679 31.692 36.1679 32.0645 35.7954C32.4371 35.4229 32.4371 34.819 32.0645 34.4465C31.692 34.0739 31.0881 34.0739 30.7156 34.4465C30.3431 34.819 30.3431 35.4229 30.7156 35.7954ZM28.967 32.6979C28.6088 33.0561 28.6088 33.6368 28.967 33.995C29.3252 34.3532 29.9059 34.3532 30.2641 33.995C30.6223 33.6368 30.6223 33.0561 30.2641 32.6979C29.9059 32.3397 29.3252 32.3397 28.967 32.6979ZM27.2185 32.1945C27.5623 32.5384 28.1198 32.5384 28.4637 32.1945C28.8075 31.8507 28.8075 31.2932 28.4637 30.9493C28.1198 30.6055 27.5623 30.6055 27.2185 30.9493C26.8746 31.2932 26.8746 31.8507 27.2185 32.1945ZM25.4699 30.3941C25.7994 30.7236 26.3337 30.7236 26.6632 30.3941C26.9927 30.0646 26.9927 29.5303 26.6632 29.2008C26.3337 28.8713 25.7994 28.8713 25.4699 29.2008C25.1404 29.5303 25.1404 30.0646 25.4699 30.3941ZM23.7213 27.4522C23.4061 27.7674 23.4061 28.2785 23.7213 28.5937C24.0365 28.9089 24.5476 28.9089 24.8628 28.5937C25.178 28.2785 25.178 27.7674 24.8628 27.4522C24.5476 27.137 24.0365 27.137 23.7213 27.4522ZM23.0623 26.7932C23.3632 26.4923 23.3632 26.0045 23.0623 25.7037C22.7615 25.4028 22.2737 25.4028 21.9728 25.7037C21.6719 26.0045 21.6719 26.4923 21.9728 26.7932C22.2737 27.0941 22.7615 27.0941 23.0623 26.7932ZM21.2619 24.9928C21.5484 24.7062 21.5484 24.2416 21.2619 23.9551C20.9754 23.6686 20.5108 23.6686 20.2242 23.9551C19.9377 24.2416 19.9377 24.7062 20.2242 24.9928C20.5108 25.2793 20.9754 25.2793 21.2619 24.9928ZM19.4615 23.1923C19.7337 22.9201 19.7337 22.4788 19.4615 22.2065C19.1892 21.9343 18.7479 21.9343 18.4757 22.2065C18.2034 22.4788 18.2034 22.9201 18.4757 23.1923C18.7479 23.4646 19.1892 23.4646 19.4615 23.1923ZM17.661 21.3919C17.9189 21.134 17.9189 20.7159 17.661 20.458C17.4031 20.2001 16.985 20.2001 16.7271 20.458C16.4692 20.7159 16.4692 21.134 16.7271 21.3919C16.985 21.6498 17.4031 21.6498 17.661 21.3919ZM15.8606 19.5914C16.1041 19.3479 16.1041 18.953 15.8606 18.7094C15.617 18.4659 15.2221 18.4659 14.9786 18.7094C14.735 18.953 14.735 19.3479 14.9786 19.5914C15.2221 19.835 15.617 19.835 15.8606 19.5914ZM14.0601 17.791C14.2894 17.5618 14.2894 17.1901 14.0601 16.9609C13.8309 16.7316 13.4592 16.7316 13.23 16.9609C13.0008 17.1901 13.0008 17.5618 13.23 17.791C13.4592 18.0202 13.8309 18.0202 14.0601 17.791ZM43.0724 43.0724C42.6139 43.5308 42.6139 44.2742 43.0724 44.7326C43.5308 45.1911 44.2742 45.1911 44.7326 44.7326C45.1911 44.2742 45.1911 43.5308 44.7326 43.0724C44.2742 42.6139 43.5308 42.6139 43.0724 43.0724ZM42.9322 42.9322C43.3763 42.4881 43.3763 41.7679 42.9322 41.3238C42.4881 40.8797 41.7679 40.8797 41.3238 41.3238C40.8797 41.7679 40.8797 42.4881 41.3238 42.9322C41.7679 43.3763 42.4881 43.3763 42.9322 42.9322ZM41.1318 41.1318C41.5616 40.7019 41.5616 40.0051 41.1318 39.5752C40.7019 39.1454 40.0051 39.1454 39.5752 39.5752C39.1454 40.0051 39.1454 40.7019 39.5752 41.1318C40.0051 41.5616 40.7019 41.5616 41.1318 41.1318ZM39.3313 39.3313C39.7468 38.9158 39.7468 38.2422 39.3313 37.8267C38.9158 37.4112 38.2422 37.4112 37.8267 37.8267C37.4112 38.2422 37.4112 38.9158 37.8267 39.3313C38.2422 39.7468 38.9158 39.7468 39.3313 39.3313ZM37.5309 37.5309C37.932 37.1297 37.932 36.4793 37.5309 36.0781C37.1297 35.677 36.4793 35.677 36.0781 36.0781C35.677 36.4793 35.677 37.1297 36.0781 37.5309C36.4793 37.932 37.1297 37.932 37.5309 37.5309ZM34.3296 34.3296C33.9427 34.7164 33.9427 35.3436 34.3296 35.7304C34.7164 36.1173 35.3436 36.1173 35.7304 35.7304C36.1173 35.3436 36.1173 34.7164 35.7304 34.3296C35.3436 33.9427 34.7164 33.9427 34.3296 34.3296ZM32.581 33.93C32.9535 34.3025 33.5575 34.3025 33.93 33.93C34.3025 33.5575 34.3025 32.9535 33.93 32.581C33.5575 32.2085 32.9535 32.2085 32.581 32.581C32.2085 32.9535 32.2085 33.5575 32.581 33.93ZM30.8325 30.8325C30.4743 31.1906 30.4743 31.7714 30.8325 32.1295C31.1906 32.4877 31.7714 32.4877 32.1295 32.1295C32.4877 31.7714 32.4877 31.1906 32.1295 30.8325C31.7714 30.4743 31.1906 30.4743 30.8325 30.8325ZM29.0839 30.3291C29.4278 30.673 29.9853 30.673 30.3291 30.3291C30.673 29.9853 30.673 29.4278 30.3291 29.0839C29.9853 28.74 29.4278 28.74 29.0839 29.0839C28.74 29.4278 28.74 29.9853 29.0839 30.3291ZM27.3353 28.5287C27.6649 28.8582 28.1991 28.8582 28.5287 28.5287C28.8582 28.1991 28.8582 27.6649 28.5287 27.3353C28.1991 27.0058 27.6649 27.0058 27.3353 27.3353C27.0058 27.6649 27.0058 28.1991 27.3353 28.5287ZM25.5868 25.5868C25.2716 25.902 25.2716 26.413 25.5868 26.7282C25.902 27.0434 26.413 27.0434 26.7282 26.7282C27.0434 26.413 27.0434 25.902 26.7282 25.5868C26.413 25.2716 25.902 25.2716 25.5868 25.5868ZM24.9278 24.9278C25.2286 24.6269 25.2286 24.1391 24.9278 23.8382C24.6269 23.5373 24.1391 23.5373 23.8382 23.8382C23.5373 24.1391 23.5373 24.6269 23.8382 24.9278C24.1391 25.2286 24.6269 25.2286 24.9278 24.9278ZM23.1273 23.1273C23.4139 22.8408 23.4139 22.3762 23.1273 22.0897C22.8408 21.8031 22.3762 21.8031 22.0897 22.0897C21.8031 22.3762 21.8031 22.8408 22.0897 23.1273C22.3762 23.4139 22.8408 23.4139 23.1273 23.1273ZM21.3269 21.3269C21.5991 21.0547 21.5991 20.6133 21.3269 20.3411C21.0547 20.0689 20.6133 20.0689 20.3411 20.3411C20.0689 20.6133 20.0689 21.0547 20.3411 21.3269C20.6133 21.5991 21.0547 21.5991 21.3269 21.3269ZM19.5265 19.5265C19.7843 19.2686 19.7843 18.8504 19.5265 18.5925C19.2686 18.3347 18.8504 18.3347 18.5925 18.5925C18.3347 18.8504 18.3347 19.2686 18.5925 19.5265C18.8504 19.7843 19.2686 19.7843 19.5265 19.5265ZM17.726 17.726C17.9696 17.4824 17.9696 17.0876 17.726 16.844C17.4824 16.6004 17.0876 16.6004 16.844 16.844C16.6004 17.0876 16.6004 17.4824 16.844 17.726C17.0876 17.9696 17.4824 17.9696 17.726 17.726ZM15.9256 15.9256C16.1548 15.6963 16.1548 15.3247 15.9256 15.0954C15.6963 14.8662 15.3247 14.8662 15.0954 15.0954C14.8662 15.3247 14.8662 15.6963 15.0954 15.9256C15.3247 16.1548 15.6963 16.1548 15.9256 15.9256ZM44.9378 41.2069C44.4793 41.6654 44.4793 42.4087 44.9378 42.8672C45.3963 43.3257 46.1396 43.3257 46.5981 42.8672C47.0565 42.4087 47.0565 41.6654 46.5981 41.2069C46.1396 40.7485 45.3963 40.7485 44.9378 41.2069ZM44.7976 41.0668C45.2418 40.6226 45.2418 39.9025 44.7976 39.4584C44.3535 39.0142 43.6334 39.0142 43.1892 39.4584C42.7451 39.9025 42.7451 40.6226 43.1892 41.0668C43.6334 41.5109 44.3535 41.5109 44.7976 41.0668ZM42.9972 39.2663C43.427 38.8365 43.427 38.1396 42.9972 37.7098C42.5674 37.28 41.8705 37.28 41.4407 37.7098C41.0109 38.1396 41.0109 38.8365 41.4407 39.2663C41.8705 39.6961 42.5674 39.6961 42.9972 39.2663ZM41.1968 37.4659C41.6122 37.0504 41.6122 36.3767 41.1968 35.9613C40.7813 35.5458 40.1076 35.5458 39.6921 35.9613C39.2766 36.3767 39.2766 37.0504 39.6921 37.4659C40.1076 37.8814 40.7813 37.8814 41.1968 37.4659ZM39.3963 35.6654C39.7975 35.2643 39.7975 34.6139 39.3963 34.2127C38.9951 33.8115 38.3447 33.8115 37.9436 34.2127C37.5424 34.6139 37.5424 35.2643 37.9436 35.6654C38.3447 36.0666 38.9951 36.0666 39.3963 35.6654ZM36.195 32.4641C35.8082 32.851 35.8082 33.4782 36.195 33.865C36.5818 34.2518 37.209 34.2518 37.5959 33.865C37.9827 33.4782 37.9827 32.851 37.5959 32.4641C37.209 32.0773 36.5818 32.0773 36.195 32.4641ZM34.4465 32.0645C34.819 32.4371 35.4229 32.4371 35.7954 32.0645C36.1679 31.692 36.1679 31.0881 35.7954 30.7156C35.4229 30.3431 34.819 30.3431 34.4465 30.7156C34.0739 31.0881 34.0739 31.692 34.4465 32.0645ZM32.6979 28.967C32.3397 29.3252 32.3397 29.9059 32.6979 30.2641C33.0561 30.6223 33.6368 30.6223 33.995 30.2641C34.3532 29.9059 34.3532 29.3252 33.995 28.967C33.6368 28.6088 33.0561 28.6088 32.6979 28.967ZM30.9493 28.4637C31.2932 28.8075 31.8507 28.8075 32.1945 28.4637C32.5384 28.1198 32.5384 27.5623 32.1945 27.2185C31.8507 26.8746 31.2932 26.8746 30.9493 27.2185C30.6055 27.5623 30.6055 28.1198 30.9493 28.4637ZM29.2008 26.6632C29.5303 26.9927 30.0646 26.9927 30.3941 26.6632C30.7236 26.3337 30.7236 25.7994 30.3941 25.4699C30.0646 25.1404 29.5303 25.1404 29.2008 25.4699C28.8713 25.7994 28.8713 26.3337 29.2008 26.6632ZM27.4522 23.7213C27.137 24.0365 27.137 24.5476 27.4522 24.8628C27.7674 25.178 28.2785 25.178 28.5937 24.8628C28.9089 24.5476 28.9089 24.0365 28.5937 23.7213C28.2785 23.4061 27.7674 23.4061 27.4522 23.7213ZM26.7932 23.0623C27.0941 22.7615 27.0941 22.2737 26.7932 21.9728C26.4923 21.6719 26.0045 21.6719 25.7037 21.9728C25.4028 22.2737 25.4028 22.7615 25.7037 23.0623C26.0045 23.3632 26.4923 23.3632 26.7932 23.0623ZM24.9928 21.2619C25.2793 20.9754 25.2793 20.5108 24.9928 20.2242C24.7062 19.9377 24.2416 19.9377 23.9551 20.2242C23.6686 20.5108 23.6686 20.9754 23.9551 21.2619C24.2416 21.5484 24.7062 21.5484 24.9928 21.2619ZM23.1923 19.4615C23.4646 19.1892 23.4646 18.7479 23.1923 18.4757C22.9201 18.2034 22.4788 18.2034 22.2065 18.4757C21.9343 18.7479 21.9343 19.1892 22.2065 19.4615C22.4788 19.7337 22.9201 19.7337 23.1923 19.4615ZM21.3919 17.661C21.6498 17.4031 21.6498 16.985 21.3919 16.7271C21.134 16.4692 20.7159 16.4692 20.458 16.7271C20.2001 16.985 20.2001 17.4031 20.458 17.661C20.7159 17.9189 21.134 17.9189 21.3919 17.661ZM19.5914 15.8606C19.835 15.617 19.835 15.2221 19.5914 14.9786C19.3479 14.735 18.953 14.735 18.7094 14.9786C18.4659 15.2221 18.4659 15.617 18.7094 15.8606C18.953 16.1041 19.3479 16.1041 19.5914 15.8606ZM17.791 14.0601C18.0202 13.8309 18.0202 13.4592 17.791 13.23C17.5618 13.0008 17.1901 13.0008 16.9609 13.23C16.7316 13.4592 16.7316 13.8309 16.9609 14.0601C17.1901 14.2894 17.5618 14.2894 17.791 14.0601ZM46.8032 39.3415C46.3448 39.8 46.3448 40.5433 46.8032 41.0018C47.2617 41.4602 48.005 41.4602 48.4635 41.0018C48.922 40.5433 48.922 39.8 48.4635 39.3415C48.005 38.883 47.2617 38.883 46.8032 39.3415ZM46.6631 39.2013C47.1072 38.7572 47.1072 38.0371 46.6631 37.5929C46.2189 37.1488 45.4988 37.1488 45.0547 37.5929C44.6105 38.0371 44.6105 38.7572 45.0547 39.2013C45.4988 39.6455 46.2189 39.6455 46.6631 39.2013ZM44.8626 37.4009C45.2924 36.9711 45.2924 36.2742 44.8626 35.8444C44.4328 35.4146 43.7359 35.4146 43.3061 35.8444C42.8763 36.2742 42.8763 36.9711 43.3061 37.4009C43.7359 37.8307 44.4328 37.8307 44.8626 37.4009ZM43.0622 35.6004C43.4777 35.1849 43.4777 34.5113 43.0622 34.0958C42.6467 33.6803 41.9731 33.6803 41.5576 34.0958C41.1421 34.5113 41.1421 35.1849 41.5576 35.6004C41.9731 36.0159 42.6467 36.0159 43.0622 35.6004ZM41.2617 33.8C41.6629 33.3988 41.6629 32.7484 41.2617 32.3473C40.8606 31.9461 40.2102 31.9461 39.809 32.3473C39.4078 32.7484 39.4078 33.3988 39.809 33.8C40.2102 34.2012 40.8606 34.2012 41.2617 33.8ZM38.0604 30.5987C37.6736 30.9855 37.6736 31.6127 38.0604 31.9996C38.4473 32.3864 39.0745 32.3864 39.4613 31.9996C39.8481 31.6127 39.8481 30.9855 39.4613 30.5987C39.0745 30.2119 38.4473 30.2119 38.0604 30.5987ZM36.3119 28.8501C35.9394 29.2226 35.9394 29.8266 36.3119 30.1991C36.6844 30.5716 37.2884 30.5716 37.6609 30.1991C38.0334 29.8266 38.0334 29.2226 37.6609 28.8501C37.2884 28.4776 36.6844 28.4776 36.3119 28.8501ZM34.5633 27.1016C34.2052 27.4598 34.2052 28.0405 34.5633 28.3987C34.9215 28.7568 35.5022 28.7568 35.8604 28.3987C36.2186 28.0405 36.2186 27.4598 35.8604 27.1016C35.5022 26.7434 34.9215 26.7434 34.5633 27.1016ZM32.8148 26.5982C33.1586 26.9421 33.7161 26.9421 34.06 26.5982C34.4038 26.2544 34.4038 25.6969 34.06 25.353C33.7161 25.0092 33.1586 25.0092 32.8148 25.353C32.4709 25.6969 32.4709 26.2544 32.8148 26.5982ZM31.0662 24.7978C31.3957 25.1273 31.93 25.1273 32.2595 24.7978C32.5891 24.4683 32.5891 23.934 32.2595 23.6045C31.93 23.2749 31.3957 23.2749 31.0662 23.6045C30.7367 23.934 30.7367 24.4683 31.0662 24.7978ZM29.3177 21.8559C29.0025 22.1711 29.0025 22.6821 29.3177 22.9973C29.6329 23.3125 30.1439 23.3125 30.4591 22.9973C30.7743 22.6821 30.7743 22.1711 30.4591 21.8559C30.1439 21.5407 29.6329 21.5407 29.3177 21.8559ZM28.6587 21.1969C28.9595 20.896 28.9595 20.4082 28.6587 20.1073C28.3578 19.8065 27.87 19.8065 27.5691 20.1073C27.2682 20.4082 27.2682 20.896 27.5691 21.1969C27.87 21.4978 28.3578 21.4978 28.6587 21.1969ZM26.8582 19.3965C27.1448 19.1099 27.1448 18.6453 26.8582 18.3588C26.5717 18.0722 26.1071 18.0722 25.8205 18.3588C25.534 18.6453 25.534 19.1099 25.8205 19.3965C26.1071 19.683 26.5717 19.683 26.8582 19.3965ZM25.0578 17.596C25.33 17.3238 25.33 16.8824 25.0578 16.6102C24.7856 16.338 24.3442 16.338 24.072 16.6102C23.7998 16.8824 23.7998 17.3238 24.072 17.596C24.3442 17.8682 24.7856 17.8682 25.0578 17.596ZM23.2573 15.7956C23.5152 15.5377 23.5152 15.1196 23.2573 14.8617C22.9994 14.6038 22.5813 14.6038 22.3234 14.8617C22.0655 15.1196 22.0655 15.5377 22.3234 15.7956C22.5813 16.0535 22.9994 16.0535 23.2573 15.7956ZM21.4569 13.9951C21.7004 13.7516 21.7004 13.3567 21.4569 13.1131C21.2133 12.8695 20.8184 12.8695 20.5749 13.1131C20.3313 13.3567 20.3313 13.7516 20.5749 13.9951C20.8184 14.2387 21.2133 14.2387 21.4569 13.9951ZM19.6564 12.1947C19.8857 11.9655 19.8857 11.5938 19.6564 11.3646C19.4272 11.1353 19.0555 11.1353 18.8263 11.3646C18.5971 11.5938 18.5971 11.9655 18.8263 12.1947C19.0555 12.4239 19.4272 12.4239 19.6564 12.1947ZM48.6687 37.4761C48.2102 37.9345 48.2102 38.6779 48.6687 39.1363C49.1272 39.5948 49.8705 39.5948 50.329 39.1363C50.7874 38.6779 50.7874 37.9345 50.329 37.4761C49.8705 37.0176 49.1272 37.0176 48.6687 37.4761ZM48.5285 37.3359C48.9727 36.8917 48.9727 36.1716 48.5285 35.7275C48.0844 35.2833 47.3643 35.2833 46.9201 35.7275C46.476 36.1716 46.476 36.8917 46.9201 37.3359C47.3643 37.78 48.0844 37.78 48.5285 37.3359ZM46.7281 35.5354C47.1579 35.1056 47.1579 34.4088 46.7281 33.9789C46.2983 33.5491 45.6014 33.5491 45.1716 33.9789C44.7417 34.4088 44.7417 35.1056 45.1716 35.5354C45.6014 35.9653 46.2983 35.9653 46.7281 35.5354ZM44.9276 33.735C45.3431 33.3195 45.3431 32.6459 44.9276 32.2304C44.5121 31.8149 43.8385 31.8149 43.423 32.2304C43.0075 32.6459 43.0075 33.3195 43.423 33.735C43.8385 34.1505 44.5121 34.1505 44.9276 33.735ZM43.1272 31.9346C43.5284 31.5334 43.5284 30.883 43.1272 30.4818C42.726 30.0807 42.0756 30.0807 41.6744 30.4818C41.2733 30.883 41.2733 31.5334 41.6744 31.9346C42.0756 32.3357 42.726 32.3357 43.1272 31.9346ZM39.9259 28.7333C39.5391 29.1201 39.5391 29.7473 39.9259 30.1341C40.3127 30.521 40.9399 30.521 41.3267 30.1341C41.7136 29.7473 41.7136 29.1201 41.3267 28.7333C40.9399 28.3464 40.3127 28.3464 39.9259 28.7333ZM38.1773 26.9847C37.8048 27.3572 37.8048 27.9612 38.1773 28.3337C38.5498 28.7062 39.1538 28.7062 39.5263 28.3337C39.8988 27.9612 39.8988 27.3572 39.5263 26.9847C39.1538 26.6122 38.5498 26.6122 38.1773 26.9847ZM36.4288 26.5332C36.787 26.8914 37.3677 26.8914 37.7259 26.5332C38.084 26.175 38.084 25.5943 37.7259 25.2361C37.3677 24.878 36.787 24.878 36.4288 25.2361C36.0706 25.5943 36.0706 26.175 36.4288 26.5332ZM34.6802 24.7328C35.0241 25.0766 35.5816 25.0766 35.9254 24.7328C36.2693 24.3889 36.2693 23.8314 35.9254 23.4876C35.5816 23.1437 35.0241 23.1437 34.6802 23.4876C34.3364 23.8314 34.3364 24.3889 34.6802 24.7328ZM32.9317 22.9323C33.2612 23.2619 33.7954 23.2619 34.125 22.9323C34.4545 22.6028 34.4545 22.0686 34.125 21.739C33.7954 21.4095 33.2612 21.4095 32.9317 21.739C32.6021 22.0686 32.6021 22.6028 32.9317 22.9323ZM31.1831 19.9905C30.8679 20.3057 30.8679 20.8167 31.1831 21.1319C31.4983 21.4471 32.0093 21.4471 32.3245 21.1319C32.6397 20.8167 32.6397 20.3057 32.3245 19.9905C32.0093 19.6753 31.4983 19.6753 31.1831 19.9905ZM30.5241 19.3315C30.825 19.0306 30.825 18.5428 30.5241 18.2419C30.2232 17.941 29.7354 17.941 29.4345 18.2419C29.1337 18.5428 29.1337 19.0306 29.4345 19.3315C29.7354 19.6323 30.2232 19.6323 30.5241 19.3315ZM28.7236 17.531C29.0102 17.2445 29.0102 16.7799 28.7236 16.4933C28.4371 16.2068 27.9725 16.2068 27.686 16.4933C27.3994 16.7799 27.3994 17.2445 27.686 17.531C27.9725 17.8176 28.4371 17.8176 28.7236 17.531ZM26.9232 15.7306C27.1954 15.4584 27.1954 15.017 26.9232 14.7448C26.651 14.4726 26.2096 14.4726 25.9374 14.7448C25.6652 15.017 25.6652 15.4584 25.9374 15.7306C26.2096 16.0028 26.651 16.0028 26.9232 15.7306ZM25.1228 13.9301C25.3807 13.6722 25.3807 13.2541 25.1228 12.9962C24.8649 12.7383 24.4468 12.7383 24.1889 12.9962C23.931 13.2541 23.931 13.6722 24.1889 13.9301C24.4468 14.188 24.8649 14.188 25.1228 13.9301ZM23.3223 12.1297C23.5659 11.8861 23.5659 11.4912 23.3223 11.2477C23.0788 11.0041 22.6839 11.0041 22.4403 11.2477C22.1967 11.4912 22.1967 11.8861 22.4403 12.1297C22.6839 12.3733 23.0788 12.3733 23.3223 12.1297ZM21.5219 10.3293C21.7511 10.1 21.7511 9.72835 21.5219 9.49912C21.2926 9.26988 20.921 9.26988 20.6917 9.49912C20.4625 9.72835 20.4625 10.1 20.6917 10.3293C20.921 10.5585 21.2926 10.5585 21.5219 10.3293ZM50.5341 35.6106C50.0756 36.0691 50.0756 36.8124 50.5341 37.2709C50.9926 37.7294 51.7359 37.7294 52.1944 37.2709C52.6529 36.8124 52.6529 36.0691 52.1944 35.6106C51.7359 35.1521 50.9926 35.1521 50.5341 35.6106ZM50.3939 35.4704C50.8381 35.0263 50.8381 34.3062 50.3939 33.8621C49.9498 33.4179 49.2297 33.4179 48.7856 33.8621C48.3414 34.3062 48.3414 35.0263 48.7856 35.4704C49.2297 35.9146 49.9498 35.9146 50.3939 35.4704ZM48.5935 33.67C49.0233 33.2402 49.0233 32.5433 48.5935 32.1135C48.1637 31.6837 47.4668 31.6837 47.037 32.1135C46.6072 32.5433 46.6072 33.2402 47.037 33.67C47.4668 34.0998 48.1637 34.0998 48.5935 33.67ZM46.7931 31.8696C47.2086 31.4541 47.2086 30.7804 46.7931 30.3649C46.3776 29.9494 45.7039 29.9494 45.2884 30.3649C44.873 30.7804 44.873 31.4541 45.2884 31.8696C45.7039 32.285 46.3776 32.285 46.7931 31.8696ZM44.9926 30.0691C45.3938 29.668 45.3938 29.0175 44.9926 28.6164C44.5915 28.2152 43.941 28.2152 43.5399 28.6164C43.1387 29.0175 43.1387 29.668 43.5399 30.0691C43.941 30.4703 44.5915 30.4703 44.9926 30.0691ZM41.7913 26.8678C41.4045 27.2547 41.4045 27.8818 41.7913 28.2687C42.1782 28.6555 42.8053 28.6555 43.1922 28.2687C43.579 27.8818 43.579 27.2547 43.1922 26.8678C42.8053 26.481 42.1782 26.481 41.7913 26.8678ZM40.0428 25.1193C39.6703 25.4918 39.6703 26.0957 40.0428 26.4682C40.4153 26.8407 41.0192 26.8407 41.3917 26.4682C41.7642 26.0957 41.7642 25.4918 41.3917 25.1193C41.0192 24.7468 40.4153 24.7468 40.0428 25.1193ZM38.2942 24.6678C38.6524 25.026 39.2331 25.026 39.5913 24.6678C39.9495 24.3096 39.9495 23.7289 39.5913 23.3707C39.2331 23.0125 38.6524 23.0125 38.2942 23.3707C37.936 23.7289 37.936 24.3096 38.2942 24.6678ZM36.5457 22.8673C36.8895 23.2112 37.447 23.2112 37.7909 22.8673C38.1347 22.5235 38.1347 21.966 37.7909 21.6221C37.447 21.2783 36.8895 21.2783 36.5457 21.6221C36.2018 21.966 36.2018 22.5235 36.5457 22.8673ZM35.9904 21.0669C36.3199 20.7374 36.3199 20.2031 35.9904 19.8736C35.6609 19.5441 35.1266 19.5441 34.7971 19.8736C34.4676 20.2031 34.4676 20.7374 34.7971 21.0669C35.1266 21.3964 35.6609 21.3964 35.9904 21.0669ZM33.0485 18.125C32.7333 18.4402 32.7333 18.9513 33.0485 19.2665C33.3637 19.5817 33.8748 19.5817 34.19 19.2665C34.5052 18.9513 34.5052 18.4402 34.19 18.125C33.8748 17.8098 33.3637 17.8098 33.0485 18.125ZM32.3895 17.466C32.6904 17.1652 32.6904 16.6773 32.3895 16.3765C32.0887 16.0756 31.6008 16.0756 31.3 16.3765C30.9991 16.6773 30.9991 17.1652 31.3 17.466C31.6008 17.7669 32.0887 17.7669 32.3895 17.466ZM30.5891 15.6656C30.8756 15.379 30.8756 14.9145 30.5891 14.6279C30.3025 14.3414 29.838 14.3414 29.5514 14.6279C29.2649 14.9145 29.2649 15.379 29.5514 15.6656C29.838 15.9521 30.3025 15.9521 30.5891 15.6656ZM28.7886 13.8651C29.0609 13.5929 29.0609 13.1516 28.7886 12.8794C28.5164 12.6071 28.0751 12.6071 27.8029 12.8794C27.5306 13.1516 27.5306 13.5929 27.8029 13.8651C28.0751 14.1374 28.5164 14.1374 28.7886 13.8651ZM26.9882 12.0647C27.2461 11.8068 27.2461 11.3887 26.9882 11.1308C26.7303 10.8729 26.3122 10.8729 26.0543 11.1308C25.7964 11.3887 25.7964 11.8068 26.0543 12.0647C26.3122 12.3226 26.7303 12.3226 26.9882 12.0647ZM25.1878 10.2643C25.4313 10.0207 25.4313 9.6258 25.1878 9.38224C24.9442 9.13867 24.5493 9.13867 24.3057 9.38224C24.0622 9.6258 24.0622 10.0207 24.3057 10.2643C24.5493 10.5078 24.9442 10.5078 25.1878 10.2643ZM23.3873 8.46382C23.6166 8.23458 23.6166 7.86292 23.3873 7.63368C23.1581 7.40444 22.7864 7.40444 22.5572 7.63368C22.3279 7.86292 22.3279 8.23458 22.5572 8.46382C22.7864 8.69305 23.1581 8.69305 23.3873 8.46382ZM52.3996 33.7452C51.9411 34.2036 51.9411 34.947 52.3996 35.4054C52.858 35.8639 53.6014 35.8639 54.0598 35.4054C54.5183 34.947 54.5183 34.2036 54.0598 33.7452C53.6014 33.2867 52.858 33.2867 52.3996 33.7452ZM52.2594 33.605C52.7035 33.1609 52.7035 32.4408 52.2594 31.9966C51.8152 31.5525 51.0951 31.5525 50.651 31.9966C50.2069 32.4408 50.2069 33.1609 50.651 33.605C51.0951 34.0492 51.8152 34.0492 52.2594 33.605ZM50.4589 31.8046C50.8888 31.3747 50.8888 30.6779 50.4589 30.2481C50.0291 29.8182 49.3323 29.8182 48.9024 30.2481C48.4726 30.6779 48.4726 31.3747 48.9024 31.8046C49.3323 32.2344 50.0291 32.2344 50.4589 31.8046ZM48.6585 30.0041C49.074 29.5886 49.074 28.915 48.6585 28.4995C48.243 28.084 47.5694 28.084 47.1539 28.4995C46.7384 28.915 46.7384 29.5886 47.1539 30.0041C47.5694 30.4196 48.243 30.4196 48.6585 30.0041ZM46.8581 28.2037C47.2592 27.8025 47.2592 27.1521 46.8581 26.7509C46.4569 26.3498 45.8065 26.3498 45.4053 26.7509C45.0042 27.1521 45.0042 27.8025 45.4053 28.2037C45.8065 28.6048 46.4569 28.6048 46.8581 28.2037ZM43.6568 25.0024C43.2699 25.3892 43.2699 26.0164 43.6568 26.4032C44.0436 26.7901 44.6708 26.7901 45.0576 26.4032C45.4445 26.0164 45.4445 25.3892 45.0576 25.0024C44.6708 24.6155 44.0436 24.6155 43.6568 25.0024ZM41.9082 23.2538C41.5357 23.6263 41.5357 24.2303 41.9082 24.6028C42.2807 24.9753 42.8847 24.9753 43.2572 24.6028C43.6297 24.2303 43.6297 23.6263 43.2572 23.2538C42.8847 22.8813 42.2807 22.8813 41.9082 23.2538ZM40.1596 22.8024C40.5178 23.1605 41.0986 23.1605 41.4567 22.8024C41.8149 22.4442 41.8149 21.8634 41.4567 21.5053C41.0986 21.1471 40.5178 21.1471 40.1596 21.5053C39.8015 21.8634 39.8015 22.4442 40.1596 22.8024ZM38.4111 19.7567C38.0672 20.1006 38.0672 20.6581 38.4111 21.0019C38.7549 21.3458 39.3124 21.3458 39.6563 21.0019C40.0001 20.6581 40.0001 20.1006 39.6563 19.7567C39.3124 19.4129 38.7549 19.4129 38.4111 19.7567ZM37.8559 19.2015C38.1854 18.8719 38.1854 18.3377 37.8559 18.0081C37.5263 17.6786 36.9921 17.6786 36.6625 18.0081C36.333 18.3377 36.333 18.8719 36.6625 19.2015C36.9921 19.531 37.5263 19.531 37.8559 19.2015ZM36.0554 17.401C36.3706 17.0858 36.3706 16.5748 36.0554 16.2596C35.7402 15.9444 35.2292 15.9444 34.914 16.2596C34.5988 16.5748 34.5988 17.0858 34.914 17.401C35.2292 17.7162 35.7402 17.7162 36.0554 17.401ZM34.255 15.6006C34.5558 15.2997 34.5558 14.8119 34.255 14.511C33.9541 14.2102 33.4663 14.2102 33.1654 14.511C32.8645 14.8119 32.8645 15.2997 33.1654 15.6006C33.4663 15.9015 33.9541 15.9015 34.255 15.6006ZM32.4545 13.8001C32.7411 13.5136 32.7411 13.049 32.4545 12.7625C32.168 12.4759 31.7034 12.4759 31.4169 12.7625C31.1303 13.049 31.1303 13.5136 31.4169 13.8001C31.7034 14.0867 32.168 14.0867 32.4545 13.8001ZM30.6541 11.9997C30.9263 11.7275 30.9263 11.2861 30.6541 11.0139C30.3819 10.7417 29.9405 10.7417 29.6683 11.0139C29.3961 11.2861 29.3961 11.7275 29.6683 11.9997C29.9405 12.2719 30.3819 12.2719 30.6541 11.9997ZM28.8536 10.1993C29.1115 9.94137 29.1115 9.52325 28.8536 9.26536C28.5958 9.00747 28.1776 9.00747 27.9197 9.26536C27.6618 9.52325 27.6618 9.94137 27.9197 10.1993C28.1776 10.4572 28.5958 10.4572 28.8536 10.1993ZM27.0532 8.39882C27.2968 8.15526 27.2968 7.76036 27.0532 7.5168C26.8096 7.27324 26.4147 7.27324 26.1712 7.5168C25.9276 7.76036 25.9276 8.15526 26.1712 8.39882C26.4147 8.64238 26.8096 8.64238 27.0532 8.39882ZM25.2528 6.59838C25.482 6.36914 25.482 5.99748 25.2528 5.76824C25.0235 5.539 24.6519 5.539 24.4226 5.76824C24.1934 5.99748 24.1934 6.36914 24.4226 6.59838C24.6519 6.82761 25.0235 6.82761 25.2528 6.59838ZM54.265 31.8797C53.8065 32.3382 53.8065 33.0815 54.265 33.54C54.7235 33.9985 55.4668 33.9985 55.9253 33.54C56.3837 33.0815 56.3837 32.3382 55.9253 31.8797C55.4668 31.4213 54.7235 31.4213 54.265 31.8797ZM54.1248 31.7396C54.569 31.2954 54.569 30.5753 54.1248 30.1312C53.6807 29.687 52.9606 29.687 52.5164 30.1312C52.0723 30.5753 52.0723 31.2954 52.5164 31.7396C52.9606 32.1837 53.6807 32.1837 54.1248 31.7396ZM52.3244 29.9391C52.7542 29.5093 52.7542 28.8124 52.3244 28.3826C51.8946 27.9528 51.1977 27.9528 50.7679 28.3826C50.3381 28.8124 50.3381 29.5093 50.7679 29.9391C51.1977 30.3689 51.8946 30.3689 52.3244 29.9391ZM50.5239 28.1387C50.9394 27.7232 50.9394 27.0495 50.5239 26.6341C50.1085 26.2186 49.4348 26.2186 49.0193 26.6341C48.6038 27.0495 48.6038 27.7232 49.0193 28.1387C49.4348 28.5542 50.1085 28.5542 50.5239 28.1387ZM47.2708 24.8855C46.8696 25.2867 46.8696 25.9371 47.2708 26.3382C47.6719 26.7394 48.3223 26.7394 48.7235 26.3382C49.1247 25.9371 49.1247 25.2867 48.7235 24.8855C48.3223 24.4843 47.6719 24.4843 47.2708 24.8855ZM45.5222 23.1369C45.1354 23.5238 45.1354 24.151 45.5222 24.5378C45.909 24.9246 46.5362 24.9246 46.9231 24.5378C47.3099 24.151 47.3099 23.5238 46.9231 23.1369C46.5362 22.7501 45.909 22.7501 45.5222 23.1369ZM43.7736 21.3884C43.4011 21.7609 43.4011 22.3648 43.7736 22.7374C44.1462 23.1099 44.7501 23.1099 45.1226 22.7374C45.4951 22.3648 45.4951 21.7609 45.1226 21.3884C44.7501 21.0159 44.1462 21.0159 43.7736 21.3884ZM42.0251 20.9369C42.3833 21.2951 42.964 21.2951 43.3222 20.9369C43.6804 20.5787 43.6804 19.998 43.3222 19.6398C42.964 19.2816 42.3833 19.2816 42.0251 19.6398C41.6669 19.998 41.6669 20.5787 42.0251 20.9369ZM40.2765 17.8913C39.9327 18.2351 39.9327 18.7926 40.2765 19.1365C40.6204 19.4803 41.1779 19.4803 41.5217 19.1365C41.8656 18.7926 41.8656 18.2351 41.5217 17.8913C41.1779 17.5474 40.6204 17.5474 40.2765 17.8913ZM39.7213 17.336C40.0508 17.0065 40.0508 16.4722 39.7213 16.1427C39.3918 15.8132 38.8575 15.8132 38.528 16.1427C38.1984 16.4722 38.1984 17.0065 38.528 17.336C38.8575 17.6656 39.3918 17.6656 39.7213 17.336ZM37.9208 15.5356C38.236 15.2204 38.236 14.7093 37.9208 14.3942C37.6057 14.079 37.0946 14.079 36.7794 14.3942C36.4642 14.7093 36.4642 15.2204 36.7794 15.5356C37.0946 15.8508 37.6057 15.8508 37.9208 15.5356ZM36.1204 13.7351C36.4213 13.4343 36.4213 12.9465 36.1204 12.6456C35.8195 12.3447 35.3317 12.3447 35.0309 12.6456C34.73 12.9465 34.73 13.4343 35.0309 13.7351C35.3317 14.036 35.8195 14.036 36.1204 13.7351ZM34.32 11.9347C34.6065 11.6482 34.6065 11.1836 34.32 10.897C34.0334 10.6105 33.5688 10.6105 33.2823 10.897C32.9958 11.1836 32.9958 11.6482 33.2823 11.9347C33.5688 12.2213 34.0334 12.2213 34.32 11.9347ZM32.5195 10.1343C32.7917 9.86205 32.7917 9.42069 32.5195 9.14848C32.2473 8.87626 31.806 8.87626 31.5337 9.14848C31.2615 9.42069 31.2615 9.86205 31.5337 10.1343C31.806 10.4065 32.2473 10.4065 32.5195 10.1343ZM30.7191 8.33382C30.977 8.07593 30.977 7.65781 30.7191 7.39992C30.4612 7.14203 30.0431 7.14203 29.7852 7.39992C29.5273 7.65781 29.5273 8.07593 29.7852 8.33382C30.0431 8.59171 30.4612 8.59171 30.7191 8.33382ZM28.9186 6.53338C29.1622 6.28982 29.1622 5.89493 28.9186 5.65136C28.6751 5.4078 28.2802 5.4078 28.0366 5.65136C27.7931 5.89493 27.7931 6.28982 28.0366 6.53338C28.2802 6.77695 28.6751 6.77695 28.9186 6.53338ZM27.1182 4.73294C27.3474 4.5037 27.3474 4.13204 27.1182 3.9028C26.889 3.67356 26.5173 3.67356 26.2881 3.9028C26.0588 4.13204 26.0588 4.5037 26.2881 4.73294C26.5173 4.96217 26.889 4.96217 27.1182 4.73294ZM56.1304 30.0143C55.672 30.4728 55.672 31.2161 56.1304 31.6746C56.5889 32.133 57.3322 32.133 57.7907 31.6746C58.2492 31.2161 58.2492 30.4728 57.7907 30.0143C57.3322 29.5558 56.5889 29.5558 56.1304 30.0143ZM55.9903 29.8741C56.4344 29.43 56.4344 28.7099 55.9903 28.2657C55.5461 27.8216 54.826 27.8216 54.3819 28.2657C53.9377 28.7099 53.9377 29.43 54.3819 29.8741C54.826 30.3183 55.5461 30.3183 55.9903 29.8741ZM54.1898 28.0737C54.6196 27.6439 54.6196 26.947 54.1898 26.5172C53.76 26.0874 53.0631 26.0874 52.6333 26.5172C52.2035 26.947 52.2035 27.6439 52.6333 28.0737C53.0631 28.5035 53.76 28.5035 54.1898 28.0737ZM50.8848 24.7686C50.4693 25.1841 50.4693 25.8578 50.8848 26.2732C51.3002 26.6887 51.9739 26.6887 52.3894 26.2732C52.8049 25.8578 52.8049 25.1841 52.3894 24.7686C51.9739 24.3531 51.3002 24.3531 50.8848 24.7686ZM49.1362 23.0201C48.735 23.4212 48.735 24.0716 49.1362 24.4728C49.5374 24.874 50.1878 24.874 50.5889 24.4728C50.9901 24.0716 50.9901 23.4212 50.5889 23.0201C50.1878 22.6189 49.5374 22.6189 49.1362 23.0201ZM47.3876 21.2715C47.0008 21.6583 47.0008 22.2855 47.3876 22.6724C47.7745 23.0592 48.4017 23.0592 48.7885 22.6724C49.1753 22.2855 49.1753 21.6583 48.7885 21.2715C48.4017 20.8847 47.7745 20.8847 47.3876 21.2715ZM45.6391 19.5229C45.2666 19.8955 45.2666 20.4994 45.6391 20.8719C46.0116 21.2444 46.6155 21.2444 46.9881 20.8719C47.3606 20.4994 47.3606 19.8955 46.9881 19.5229C46.6155 19.1504 46.0116 19.1504 45.6391 19.5229ZM43.8905 17.7744C43.5323 18.1326 43.5323 18.7133 43.8905 19.0715C44.2487 19.4297 44.8294 19.4297 45.1876 19.0715C45.5458 18.7133 45.5458 18.1326 45.1876 17.7744C44.8294 17.4162 44.2487 17.4162 43.8905 17.7744ZM42.142 16.0258C41.7981 16.3697 41.7981 16.9272 42.142 17.271C42.4858 17.6149 43.0433 17.6149 43.3872 17.271C43.731 16.9272 43.731 16.3697 43.3872 16.0258C43.0433 15.682 42.4858 15.682 42.142 16.0258ZM41.5867 15.4706C41.9163 15.1411 41.9163 14.6068 41.5867 14.2773C41.2572 13.9477 40.7229 13.9477 40.3934 14.2773C40.0639 14.6068 40.0639 15.1411 40.3934 15.4706C40.7229 15.8001 41.2572 15.8001 41.5867 15.4706ZM39.7863 13.6702C40.1015 13.355 40.1015 12.8439 39.7863 12.5287C39.4711 12.2135 38.96 12.2135 38.6449 12.5287C38.3297 12.8439 38.3297 13.355 38.6449 13.6702C38.96 13.9854 39.4711 13.9854 39.7863 13.6702ZM37.9858 11.8697C38.2867 11.5688 38.2867 11.081 37.9858 10.7802C37.685 10.4793 37.1972 10.4793 36.8963 10.7802C36.5954 11.081 36.5954 11.5688 36.8963 11.8697C37.1972 12.1706 37.685 12.1706 37.9858 11.8697ZM36.1854 10.0693C36.472 9.78272 36.472 9.31814 36.1854 9.0316C35.8989 8.74505 35.4343 8.74505 35.1477 9.0316C34.8612 9.31814 34.8612 9.78272 35.1477 10.0693C35.4343 10.3558 35.8989 10.3558 36.1854 10.0693ZM34.385 8.26883C34.6572 7.99661 34.6572 7.55526 34.385 7.28304C34.1127 7.01082 33.6714 7.01082 33.3992 7.28304C33.127 7.55526 33.127 7.99661 33.3992 8.26883C33.6714 8.54104 34.1127 8.54104 34.385 8.26883ZM32.5845 6.46838C32.8424 6.2105 32.8424 5.79237 32.5845 5.53448C32.3266 5.27659 31.9085 5.27659 31.6506 5.53448C31.3927 5.79237 31.3927 6.2105 31.6506 6.46838C31.9085 6.72627 32.3266 6.72627 32.5845 6.46838ZM30.7841 4.66794C31.0276 4.42438 31.0276 4.02949 30.7841 3.78592C30.5405 3.54236 30.1456 3.54236 29.9021 3.78592C29.6585 4.02949 29.6585 4.42438 29.9021 4.66794C30.1456 4.91151 30.5405 4.91151 30.7841 4.66794ZM28.9836 2.8675C29.2129 2.63827 29.2129 2.2666 28.9836 2.03736C28.7544 1.80813 28.3827 1.80813 28.1535 2.03736C27.9243 2.2666 27.9243 2.63827 28.1535 2.8675C28.3827 3.09674 28.7544 3.09674 28.9836 2.8675ZM59.6561 28.1489C59.1977 27.6904 58.4543 27.6904 57.9959 28.1489C57.5374 28.6073 57.5374 29.3507 57.9959 29.8091C58.4543 30.2676 59.1977 30.2676 59.6561 29.8091C60.1146 29.3507 60.1146 28.6073 59.6561 28.1489ZM56.2473 28.0087C56.6915 28.4528 57.4116 28.4528 57.8557 28.0087C58.2999 27.5645 58.2999 26.8444 57.8557 26.4003C57.4116 25.9562 56.6915 25.9562 56.2473 26.4003C55.8032 26.8444 55.8032 27.5645 56.2473 28.0087ZM54.4988 26.2082C54.9286 26.6381 55.6254 26.6381 56.0553 26.2082C56.4851 25.7784 56.4851 25.0816 56.0553 24.6517C55.6254 24.2219 54.9286 24.2219 54.4988 24.6517C54.0689 25.0816 54.0689 25.7784 54.4988 26.2082ZM52.7502 24.4078C53.1657 24.8233 53.8393 24.8233 54.2548 24.4078C54.6703 23.9923 54.6703 23.3187 54.2548 22.9032C53.8393 22.4877 53.1657 22.4877 52.7502 22.9032C52.3347 23.3187 52.3347 23.9923 52.7502 24.4078ZM51.0016 22.6074C51.4028 23.0085 52.0532 23.0085 52.4544 22.6074C52.8555 22.2062 52.8555 21.5558 52.4544 21.1546C52.0532 20.7535 51.4028 20.7535 51.0016 21.1546C50.6005 21.5558 50.6005 22.2062 51.0016 22.6074ZM49.2531 20.8069C49.6399 21.1938 50.2671 21.1938 50.6539 20.8069C51.0408 20.4201 51.0408 19.7929 50.6539 19.4061C50.2671 19.0192 49.6399 19.0192 49.2531 19.4061C48.8662 19.7929 48.8662 20.4201 49.2531 20.8069ZM47.5045 19.0065C47.877 19.379 48.481 19.379 48.8535 19.0065C49.226 18.634 49.226 18.03 48.8535 17.6575C48.481 17.285 47.877 17.285 47.5045 17.6575C47.132 18.03 47.132 18.634 47.5045 19.0065ZM45.756 17.206C46.1141 17.5642 46.6949 17.5642 47.0531 17.206C47.4112 16.8479 47.4112 16.2671 47.0531 15.9089C46.6949 15.5508 46.1141 15.5508 45.756 15.9089C45.3978 16.2671 45.3978 16.8479 45.756 17.206ZM45.2526 15.4056C45.5965 15.0617 45.5965 14.5042 45.2526 14.1604C44.9088 13.8165 44.3513 13.8165 44.0074 14.1604C43.6636 14.5042 43.6636 15.0617 44.0074 15.4056C44.3513 15.7495 44.9088 15.7495 45.2526 15.4056ZM43.4522 13.6052C43.7817 13.2756 43.7817 12.7414 43.4522 12.4118C43.1226 12.0823 42.5884 12.0823 42.2588 12.4118C41.9293 12.7414 41.9293 13.2756 42.2588 13.6052C42.5884 13.9347 43.1226 13.9347 43.4522 13.6052ZM41.6517 11.8047C41.9669 11.4895 41.9669 10.9785 41.6517 10.6633C41.3365 10.3481 40.8255 10.3481 40.5103 10.6633C40.1951 10.9785 40.1951 11.4895 40.5103 11.8047C40.8255 12.1199 41.3365 12.1199 41.6517 11.8047ZM39.8513 10.0043C40.1522 9.7034 40.1522 9.21559 39.8513 8.91472C39.5504 8.61385 39.0626 8.61385 38.7617 8.91472C38.4609 9.21559 38.4609 9.7034 38.7617 10.0043C39.0626 10.3051 39.5504 10.3051 39.8513 10.0043ZM38.0508 8.20383C38.3374 7.91728 38.3374 7.4527 38.0508 7.16616C37.7643 6.87961 37.2997 6.87961 37.0132 7.16616C36.7266 7.4527 36.7266 7.91728 37.0132 8.20383C37.2997 8.49038 37.7643 8.49038 38.0508 8.20383ZM36.2504 6.40339C36.5226 6.13117 36.5226 5.68982 36.2504 5.4176C35.9782 5.14538 35.5368 5.14538 35.2646 5.4176C34.9924 5.68982 34.9924 6.13117 35.2646 6.40339C35.5368 6.67561 35.9782 6.67561 36.2504 6.40339ZM34.45 4.60295C34.7079 4.34506 34.7079 3.92693 34.45 3.66904C34.1921 3.41115 33.7739 3.41115 33.5161 3.66904C33.2582 3.92693 33.2582 4.34506 33.5161 4.60295C33.7739 4.86083 34.1921 4.86083 34.45 4.60295ZM32.6495 2.8025C32.8931 2.55894 32.8931 2.16405 32.6495 1.92048C32.406 1.67692 32.0111 1.67692 31.7675 1.92048C31.5239 2.16405 31.5239 2.55894 31.7675 2.8025C32.0111 3.04607 32.406 3.04607 32.6495 2.8025ZM30.8491 1.00206C31.0783 0.772827 31.0783 0.401161 30.8491 0.171926C30.6198 -0.0573088 30.2482 -0.0573088 30.0189 0.171926C29.7897 0.401161 29.7897 0.772827 30.0189 1.00206C30.2482 1.2313 30.6198 1.2313 30.8491 1.00206Z" fill="white"/>
<path d="M69.6364 47V12.0909H72.8239V30.892H73.1307L90.1761 12.0909H94.3693L79.4545 28.233L94.3011 47H90.4148L77.4773 30.4489L72.8239 35.6648V47H69.6364ZM100.438 47H97.0966L109.795 12.0909H113.205L125.903 47H122.562L111.619 16.233H111.381L100.438 47ZM102.841 33.6193H120.159V36.483H102.841V33.6193ZM125.051 12.0909H128.733L139.08 28.6591H139.386L149.733 12.0909H153.415L140.818 31.8807V47H137.648V31.8807L125.051 12.0909ZM159.402 47V12.0909H170.669C173.146 12.0909 175.214 12.5398 176.874 13.4375C178.544 14.3239 179.8 15.5568 180.641 17.1364C181.493 18.7045 181.919 20.5057 181.919 22.5398C181.919 24.5739 181.493 26.3693 180.641 27.9261C179.8 29.483 178.55 30.6989 176.891 31.5739C175.232 32.4489 173.175 32.8864 170.72 32.8864H161.124V29.9716H170.635C172.453 29.9716 173.964 29.6705 175.169 29.0682C176.385 28.4659 177.288 27.608 177.879 26.4943C178.482 25.3807 178.783 24.0625 178.783 22.5398C178.783 21.017 178.482 19.6875 177.879 18.5511C177.277 17.4034 176.368 16.517 175.152 15.892C173.947 15.267 172.425 14.9545 170.584 14.9545H162.589V47H159.402ZM174.794 31.25L183.385 47H179.703L171.197 31.25H174.794ZM189.734 47H186.393L199.092 12.0909H202.501L215.2 47H211.859L200.916 16.233H200.678L189.734 47ZM192.138 33.6193H209.456V36.483H192.138V33.6193Z" fill="white"/>
</svg>
