<svg width="200" height="200" viewBox="0 0 200 200" fill="none" xmlns="http://www.w3.org/2000/svg">
<g clip-path="url(#clip0_13_4)">
<path d="M100 50.6167C72.7407 50.6167 50.6172 72.7402 50.6172 99.9994C50.6172 127.259 72.7407 149.382 100 149.382C127.259 149.382 149.383 127.259 149.383 99.9994C149.383 72.7402 127.259 50.6167 100 50.6167ZM119.901 91.1105L96.8394 114.123C96.148 114.864 95.2098 115.209 94.222 115.209C93.2839 115.209 92.3456 114.864 91.6048 114.123L80.0987 102.617C78.6667 101.185 78.6667 98.8141 80.0987 97.382C81.5307 95.9498 83.9011 95.9498 85.3333 97.382L94.222 106.271L114.667 85.8759C116.099 84.3944 118.469 84.3944 119.901 85.8759C121.333 87.3081 121.333 89.6291 119.901 91.1105Z" fill="#40B66B"/>
</g>
<defs>
<clipPath id="clip0_13_4">
<rect width="100" height="100" fill="white" transform="translate(50 50)"/>
</clipPath>
</defs>
</svg>
